<svg width="1024" height="753" viewBox="0 0 1024 753" fill="none" xmlns="http://www.w3.org/2000/svg">
<g opacity="0.2" filter="url(#filter0_f_175_198)">
<ellipse cx="512.5" cy="62" rx="670.5" ry="350" fill="#338AF3"/>
</g>
<path d="M33.0349 298C34.5302 298 35.6622 298.63 36.4308 299.891C37.2134 301.138 37.6047 302.953 37.6047 305.336C37.6047 307.719 37.2134 309.541 36.4308 310.802C35.6622 312.063 34.5302 312.693 33.0349 312.693C31.5536 312.693 30.4216 312.063 29.639 310.802C28.8564 309.541 28.4651 307.719 28.4651 305.336C28.4651 302.967 28.8564 301.152 29.639 299.891C30.4216 298.63 31.5536 298 33.0349 298ZM29.9534 305.336C29.9534 307.026 30.1072 308.35 30.4146 309.306L35.0683 300.099C34.5791 299.448 33.9013 299.122 33.0349 299.122C32.0706 299.122 31.316 299.635 30.771 300.66C30.2259 301.672 29.9534 303.23 29.9534 305.336ZM33.0349 311.55C34.0131 311.55 34.7748 311.044 35.3198 310.033C35.8648 309.008 36.1373 307.442 36.1373 305.336C36.1373 303.549 35.9627 302.163 35.6133 301.18L30.9596 310.469C31.4627 311.19 32.1545 311.55 33.0349 311.55Z" fill="url(#paint0_linear_175_198)" fill-opacity="0.6"/>
<path d="M34.2926 335.135H37.3741V336.236H29.3874V335.135H32.9511V323.455L29.5551 325.471L28.9682 324.536L33.1607 321.959H34.2926V335.135Z" fill="url(#paint1_linear_175_198)" fill-opacity="0.6"/>
<path d="M33.0349 345.502C34.5302 345.502 35.6622 346.133 36.4308 347.393C37.2134 348.64 37.6047 350.455 37.6047 352.838C37.6047 355.221 37.2134 357.043 36.4308 358.304C35.6622 359.565 34.5302 360.195 33.0349 360.195C31.5536 360.195 30.4216 359.565 29.639 358.304C28.8564 357.043 28.4651 355.221 28.4651 352.838C28.4651 350.469 28.8564 348.654 29.639 347.393C30.4216 346.133 31.5536 345.502 33.0349 345.502ZM29.9534 352.838C29.9534 354.529 30.1072 355.852 30.4146 356.808L35.0683 347.601C34.5791 346.95 33.9013 346.624 33.0349 346.624C32.0706 346.624 31.316 347.137 30.771 348.162C30.2259 349.174 29.9534 350.732 29.9534 352.838ZM33.0349 359.052C34.0131 359.052 34.7748 358.546 35.3198 357.535C35.8648 356.51 36.1373 354.944 36.1373 352.838C36.1373 351.051 35.9627 349.665 35.6133 348.682L30.9596 357.971C31.4627 358.692 32.1545 359.052 33.0349 359.052Z" fill="url(#paint2_linear_175_198)" fill-opacity="0.6"/>
<path d="M34.2926 382.637H37.3741V383.738H29.3874V382.637H32.9511V370.957L29.5551 372.973L28.9682 372.038L33.1607 369.461H34.2926V382.637Z" fill="url(#paint3_linear_175_198)" fill-opacity="0.6"/>
<path d="M34.2926 406.388H37.3741V407.489H29.3874V406.388H32.9511V394.708L29.5551 396.724L28.9682 395.789L33.1607 393.212H34.2926V406.388Z" fill="url(#paint4_linear_175_198)" fill-opacity="0.6"/>
<path d="M33.0349 416.755C34.5302 416.755 35.6622 417.386 36.4308 418.646C37.2134 419.893 37.6047 421.708 37.6047 424.091C37.6047 426.474 37.2134 428.296 36.4308 429.557C35.6622 430.818 34.5302 431.448 33.0349 431.448C31.5536 431.448 30.4216 430.818 29.639 429.557C28.8564 428.296 28.4651 426.474 28.4651 424.091C28.4651 421.722 28.8564 419.907 29.639 418.646C30.4216 417.386 31.5536 416.755 33.0349 416.755ZM29.9534 424.091C29.9534 425.782 30.1072 427.105 30.4146 428.061L35.0683 418.854C34.5791 418.203 33.9013 417.878 33.0349 417.878C32.0706 417.878 31.316 418.39 30.771 419.415C30.2259 420.427 29.9534 421.985 29.9534 424.091ZM33.0349 430.305C34.0131 430.305 34.7748 429.8 35.3198 428.788C35.8648 427.763 36.1373 426.197 36.1373 424.091C36.1373 422.304 35.9627 420.919 35.6133 419.935L30.9596 429.225C31.4627 429.945 32.1545 430.305 33.0349 430.305Z" fill="url(#paint5_linear_175_198)" fill-opacity="0.6"/>
<path d="M34.2926 453.89H37.3741V454.992H29.3874V453.89H32.9511V442.21L29.5551 444.226L28.9682 443.291L33.1607 440.714H34.2926V453.89Z" fill="url(#paint6_linear_175_198)" fill-opacity="0.6"/>
<path d="M33.0349 464.257C34.5302 464.257 35.6622 464.888 36.4308 466.149C37.2134 467.396 37.6047 469.211 37.6047 471.594C37.6047 473.977 37.2134 475.798 36.4308 477.059C35.6622 478.32 34.5302 478.95 33.0349 478.95C31.5536 478.95 30.4216 478.32 29.639 477.059C28.8564 475.798 28.4651 473.977 28.4651 471.594C28.4651 469.224 28.8564 467.409 29.639 466.149C30.4216 464.888 31.5536 464.257 33.0349 464.257ZM29.9534 471.594C29.9534 473.284 30.1072 474.607 30.4146 475.563L35.0683 466.356C34.5791 465.705 33.9013 465.38 33.0349 465.38C32.0706 465.38 31.316 465.892 30.771 466.918C30.2259 467.929 29.9534 469.488 29.9534 471.594ZM33.0349 477.807C34.0131 477.807 34.7748 477.302 35.3198 476.29C35.8648 475.265 36.1373 473.699 36.1373 471.594C36.1373 469.806 35.9627 468.421 35.6133 467.437L30.9596 476.727C31.4627 477.447 32.1545 477.807 33.0349 477.807Z" fill="url(#paint7_linear_175_198)" fill-opacity="0.6"/>
<path d="M33.0349 488.008C34.5302 488.008 35.6622 488.639 36.4308 489.9C37.2134 491.147 37.6047 492.962 37.6047 495.345C37.6047 497.728 37.2134 499.549 36.4308 500.81C35.6622 502.071 34.5302 502.701 33.0349 502.701C31.5536 502.701 30.4216 502.071 29.639 500.81C28.8564 499.549 28.4651 497.728 28.4651 495.345C28.4651 492.975 28.8564 491.16 29.639 489.9C30.4216 488.639 31.5536 488.008 33.0349 488.008ZM29.9534 495.345C29.9534 497.035 30.1072 498.358 30.4146 499.314L35.0683 490.107C34.5791 489.456 33.9013 489.131 33.0349 489.131C32.0706 489.131 31.316 489.643 30.771 490.669C30.2259 491.68 29.9534 493.239 29.9534 495.345ZM33.0349 501.558C34.0131 501.558 34.7748 501.053 35.3198 500.041C35.8648 499.016 36.1373 497.451 36.1373 495.345C36.1373 493.557 35.9627 492.172 35.6133 491.188L30.9596 500.478C31.4627 501.198 32.1545 501.558 33.0349 501.558Z" fill="url(#paint8_linear_175_198)" fill-opacity="0.6"/>
<path d="M34.2926 525.143H37.3741V526.245H29.3874V525.143H32.9511V513.464L29.5551 515.48L28.9682 514.544L33.1607 511.967H34.2926V525.143Z" fill="url(#paint9_linear_175_198)" fill-opacity="0.6"/>
<path d="M33.0349 535.511C34.5302 535.511 35.6622 536.141 36.4308 537.402C37.2134 538.649 37.6047 540.464 37.6047 542.847C37.6047 545.23 37.2134 547.052 36.4308 548.312C35.6622 549.573 34.5302 550.204 33.0349 550.204C31.5536 550.204 30.4216 549.573 29.639 548.312C28.8564 547.052 28.4651 545.23 28.4651 542.847C28.4651 540.478 28.8564 538.663 29.639 537.402C30.4216 536.141 31.5536 535.511 33.0349 535.511ZM29.9534 542.847C29.9534 544.537 30.1072 545.86 30.4146 546.816L35.0683 537.61C34.5791 536.958 33.9013 536.633 33.0349 536.633C32.0706 536.633 31.316 537.145 30.771 538.171C30.2259 539.182 29.9534 540.741 29.9534 542.847ZM33.0349 549.061C34.0131 549.061 34.7748 548.555 35.3198 547.543C35.8648 546.518 36.1373 544.953 36.1373 542.847C36.1373 541.059 35.9627 539.674 35.6133 538.69L30.9596 547.98C31.4627 548.7 32.1545 549.061 33.0349 549.061Z" fill="url(#paint10_linear_175_198)" fill-opacity="0.6"/>
<path d="M34.2926 572.645H37.3741V573.747H29.3874V572.645H32.9511V560.966L29.5551 562.982L28.9682 562.046L33.1607 559.469H34.2926V572.645Z" fill="url(#paint11_linear_175_198)" fill-opacity="0.6"/>
<path d="M34.2926 596.396H37.3741V597.498H29.3874V596.396H32.9511V584.717L29.5551 586.733L28.9682 585.798L33.1607 583.221H34.2926V596.396Z" fill="url(#paint12_linear_175_198)" fill-opacity="0.6"/>
<path d="M71.9651 345.502C73.4604 345.502 74.5924 346.133 75.361 347.393C76.1436 348.64 76.5349 350.455 76.5349 352.838C76.5349 355.221 76.1436 357.043 75.361 358.304C74.5924 359.565 73.4604 360.195 71.9651 360.195C70.4838 360.195 69.3518 359.565 68.5692 358.304C67.7866 357.043 67.3953 355.221 67.3953 352.838C67.3953 350.469 67.7866 348.654 68.5692 347.393C69.3518 346.133 70.4838 345.502 71.9651 345.502ZM68.8836 352.838C68.8836 354.529 69.0374 355.852 69.3448 356.808L73.9985 347.601C73.5093 346.95 72.8315 346.624 71.9651 346.624C71.0008 346.624 70.2462 347.137 69.7012 348.162C69.1561 349.174 68.8836 350.732 68.8836 352.838ZM71.9651 359.052C72.9433 359.052 73.705 358.546 74.25 357.535C74.795 356.51 75.0675 354.944 75.0675 352.838C75.0675 351.051 74.8928 349.665 74.5435 348.682L69.8898 357.971C70.3929 358.692 71.0847 359.052 71.9651 359.052Z" fill="url(#paint13_linear_175_198)" fill-opacity="0.6"/>
<path d="M73.2228 382.637H76.3043V383.738H68.3176V382.637H71.8812V370.957L68.4853 372.973L67.8984 372.038L72.0909 369.461H73.2228V382.637Z" fill="url(#paint14_linear_175_198)" fill-opacity="0.6"/>
<path d="M71.9651 393.004C73.4604 393.004 74.5924 393.635 75.361 394.895C76.1436 396.142 76.5349 397.957 76.5349 400.34C76.5349 402.723 76.1436 404.545 75.361 405.806C74.5924 407.067 73.4604 407.697 71.9651 407.697C70.4838 407.697 69.3518 407.067 68.5692 405.806C67.7866 404.545 67.3953 402.723 67.3953 400.34C67.3953 397.971 67.7866 396.156 68.5692 394.895C69.3518 393.635 70.4838 393.004 71.9651 393.004ZM68.8836 400.34C68.8836 402.031 69.0374 403.354 69.3448 404.31L73.9985 395.103C73.5093 394.452 72.8315 394.126 71.9651 394.126C71.0008 394.126 70.2462 394.639 69.7012 395.664C69.1561 396.676 68.8836 398.234 68.8836 400.34ZM71.9651 406.554C72.9433 406.554 73.705 406.049 74.25 405.037C74.795 404.012 75.0675 402.446 75.0675 400.34C75.0675 398.553 74.8928 397.168 74.5435 396.184L69.8898 405.474C70.3929 406.194 71.0847 406.554 71.9651 406.554Z" fill="url(#paint15_linear_175_198)" fill-opacity="0.6"/>
<path d="M71.9651 416.755C73.4604 416.755 74.5924 417.386 75.361 418.646C76.1436 419.893 76.5349 421.708 76.5349 424.091C76.5349 426.474 76.1436 428.296 75.361 429.557C74.5924 430.818 73.4604 431.448 71.9651 431.448C70.4838 431.448 69.3518 430.818 68.5692 429.557C67.7866 428.296 67.3953 426.474 67.3953 424.091C67.3953 421.722 67.7866 419.907 68.5692 418.646C69.3518 417.386 70.4838 416.755 71.9651 416.755ZM68.8836 424.091C68.8836 425.782 69.0374 427.105 69.3448 428.061L73.9985 418.854C73.5093 418.203 72.8315 417.878 71.9651 417.878C71.0008 417.878 70.2462 418.39 69.7012 419.415C69.1561 420.427 68.8836 421.985 68.8836 424.091ZM71.9651 430.305C72.9433 430.305 73.705 429.8 74.25 428.788C74.795 427.763 75.0675 426.197 75.0675 424.091C75.0675 422.304 74.8928 420.919 74.5435 419.935L69.8898 429.225C70.3929 429.945 71.0847 430.305 71.9651 430.305Z" fill="url(#paint16_linear_175_198)" fill-opacity="0.6"/>
<path d="M73.2228 453.89H76.3043V454.992H68.3176V453.89H71.8812V442.21L68.4853 444.226L67.8984 443.291L72.0909 440.714H73.2228V453.89Z" fill="url(#paint17_linear_175_198)" fill-opacity="0.6"/>
<path d="M71.9651 464.257C73.4604 464.257 74.5924 464.888 75.361 466.149C76.1436 467.396 76.5349 469.211 76.5349 471.594C76.5349 473.977 76.1436 475.798 75.361 477.059C74.5924 478.32 73.4604 478.95 71.9651 478.95C70.4838 478.95 69.3518 478.32 68.5692 477.059C67.7866 475.798 67.3953 473.977 67.3953 471.594C67.3953 469.224 67.7866 467.409 68.5692 466.149C69.3518 464.888 70.4838 464.257 71.9651 464.257ZM68.8836 471.594C68.8836 473.284 69.0374 474.607 69.3448 475.563L73.9985 466.356C73.5093 465.705 72.8315 465.38 71.9651 465.38C71.0008 465.38 70.2462 465.892 69.7012 466.918C69.1561 467.929 68.8836 469.488 68.8836 471.594ZM71.9651 477.807C72.9433 477.807 73.705 477.302 74.25 476.29C74.795 475.265 75.0675 473.699 75.0675 471.594C75.0675 469.806 74.8928 468.421 74.5435 467.437L69.8898 476.727C70.3929 477.447 71.0847 477.807 71.9651 477.807Z" fill="url(#paint18_linear_175_198)" fill-opacity="0.6"/>
<path d="M73.2228 501.392H76.3043V502.494H68.3176V501.392H71.8812V489.713L68.4853 491.728L67.8984 490.793L72.0909 488.216H73.2228V501.392Z" fill="url(#paint19_linear_175_198)" fill-opacity="0.6"/>
<path d="M71.9651 511.76C73.4604 511.76 74.5924 512.39 75.361 513.651C76.1436 514.898 76.5349 516.713 76.5349 519.096C76.5349 521.479 76.1436 523.301 75.361 524.561C74.5924 525.822 73.4604 526.453 71.9651 526.453C70.4838 526.453 69.3518 525.822 68.5692 524.561C67.7866 523.301 67.3953 521.479 67.3953 519.096C67.3953 516.726 67.7866 514.911 68.5692 513.651C69.3518 512.39 70.4838 511.76 71.9651 511.76ZM68.8836 519.096C68.8836 520.786 69.0374 522.109 69.3448 523.065L73.9985 513.859C73.5093 513.207 72.8315 512.882 71.9651 512.882C71.0008 512.882 70.2462 513.394 69.7012 514.42C69.1561 515.431 68.8836 516.99 68.8836 519.096ZM71.9651 525.31C72.9433 525.31 73.705 524.804 74.25 523.792C74.795 522.767 75.0675 521.202 75.0675 519.096C75.0675 517.308 74.8928 515.923 74.5435 514.939L69.8898 524.229C70.3929 524.949 71.0847 525.31 71.9651 525.31Z" fill="url(#paint20_linear_175_198)" fill-opacity="0.6"/>
<path d="M71.9651 535.511C73.4604 535.511 74.5924 536.141 75.361 537.402C76.1436 538.649 76.5349 540.464 76.5349 542.847C76.5349 545.23 76.1436 547.052 75.361 548.312C74.5924 549.573 73.4604 550.204 71.9651 550.204C70.4838 550.204 69.3518 549.573 68.5692 548.312C67.7866 547.052 67.3953 545.23 67.3953 542.847C67.3953 540.478 67.7866 538.663 68.5692 537.402C69.3518 536.141 70.4838 535.511 71.9651 535.511ZM68.8836 542.847C68.8836 544.537 69.0374 545.86 69.3448 546.816L73.9985 537.61C73.5093 536.958 72.8315 536.633 71.9651 536.633C71.0008 536.633 70.2462 537.145 69.7012 538.171C69.1561 539.182 68.8836 540.741 68.8836 542.847ZM71.9651 549.061C72.9433 549.061 73.705 548.555 74.25 547.543C74.795 546.518 75.0675 544.953 75.0675 542.847C75.0675 541.059 74.8928 539.674 74.5435 538.69L69.8898 547.98C70.3929 548.7 71.0847 549.061 71.9651 549.061Z" fill="url(#paint21_linear_175_198)" fill-opacity="0.6"/>
<path d="M73.2228 572.645H76.3043V573.747H68.3176V572.645H71.8812V560.966L68.4853 562.982L67.8984 562.046L72.0909 559.469H73.2228V572.645Z" fill="url(#paint22_linear_175_198)" fill-opacity="0.6"/>
<path d="M71.9651 583.013C73.4604 583.013 74.5924 583.643 75.361 584.904C76.1436 586.151 76.5349 587.966 76.5349 590.349C76.5349 592.732 76.1436 594.554 75.361 595.815C74.5924 597.075 73.4604 597.706 71.9651 597.706C70.4838 597.706 69.3518 597.075 68.5692 595.815C67.7866 594.554 67.3953 592.732 67.3953 590.349C67.3953 587.98 67.7866 586.165 68.5692 584.904C69.3518 583.643 70.4838 583.013 71.9651 583.013ZM68.8836 590.349C68.8836 592.039 69.0374 593.362 69.3448 594.318L73.9985 585.112C73.5093 584.461 72.8315 584.135 71.9651 584.135C71.0008 584.135 70.2462 584.648 69.7012 585.673C69.1561 586.684 68.8836 588.243 68.8836 590.349ZM71.9651 596.563C72.9433 596.563 73.705 596.057 74.25 595.046C74.795 594.02 75.0675 592.455 75.0675 590.349C75.0675 588.562 74.8928 587.176 74.5435 586.192L69.8898 595.482C70.3929 596.202 71.0847 596.563 71.9651 596.563Z" fill="url(#paint23_linear_175_198)" fill-opacity="0.6"/>
<path d="M73.2228 620.147H76.3043V621.249H68.3176V620.147H71.8812V608.468L68.4853 610.484L67.8984 609.549L72.0909 606.972H73.2228V620.147Z" fill="url(#paint24_linear_175_198)" fill-opacity="0.6"/>
<path d="M73.2228 643.899H76.3043V645H68.3176V643.899H71.8812V632.219L68.4853 634.235L67.8984 633.3L72.0909 630.723H73.2228V643.899Z" fill="url(#paint25_linear_175_198)" fill-opacity="0.6"/>
<path d="M13.5698 369.253C15.0651 369.253 16.1971 369.884 16.9657 371.144C17.7483 372.391 18.1396 374.206 18.1396 376.589C18.1396 378.972 17.7483 380.794 16.9657 382.055C16.1971 383.316 15.0651 383.946 13.5698 383.946C12.0885 383.946 10.9565 383.316 10.1739 382.055C9.3913 380.794 9 378.972 9 376.589C9 374.22 9.3913 372.405 10.1739 371.144C10.9565 369.884 12.0885 369.253 13.5698 369.253ZM10.4883 376.589C10.4883 378.28 10.6421 379.603 10.9495 380.559L15.6032 371.352C15.114 370.701 14.4363 370.375 13.5698 370.375C12.6055 370.375 11.8509 370.888 11.3059 371.913C10.7608 372.925 10.4883 374.483 10.4883 376.589ZM13.5698 382.803C14.5481 382.803 15.3097 382.297 15.8547 381.286C16.3997 380.261 16.6722 378.695 16.6722 376.589C16.6722 374.802 16.4976 373.417 16.1482 372.433L11.4945 381.722C11.9976 382.443 12.6894 382.803 13.5698 382.803Z" fill="url(#paint26_linear_175_198)" fill-opacity="0.6"/>
<path d="M13.5698 393.004C15.0651 393.004 16.1971 393.635 16.9657 394.895C17.7483 396.142 18.1396 397.957 18.1396 400.34C18.1396 402.723 17.7483 404.545 16.9657 405.806C16.1971 407.067 15.0651 407.697 13.5698 407.697C12.0885 407.697 10.9565 407.067 10.1739 405.806C9.3913 404.545 9 402.723 9 400.34C9 397.971 9.3913 396.156 10.1739 394.895C10.9565 393.635 12.0885 393.004 13.5698 393.004ZM10.4883 400.34C10.4883 402.031 10.6421 403.354 10.9495 404.31L15.6032 395.103C15.114 394.452 14.4363 394.126 13.5698 394.126C12.6055 394.126 11.8509 394.639 11.3059 395.664C10.7608 396.676 10.4883 398.234 10.4883 400.34ZM13.5698 406.554C14.5481 406.554 15.3097 406.049 15.8547 405.037C16.3997 404.012 16.6722 402.446 16.6722 400.34C16.6722 398.553 16.4976 397.168 16.1482 396.184L11.4945 405.474C11.9976 406.194 12.6894 406.554 13.5698 406.554Z" fill="url(#paint27_linear_175_198)" fill-opacity="0.6"/>
<path d="M14.8276 430.139H17.909V431.24H9.92235V430.139H13.486V418.459L10.09 420.475L9.5031 419.54L13.6956 416.963H14.8276V430.139Z" fill="url(#paint28_linear_175_198)" fill-opacity="0.6"/>
<path d="M13.5698 440.506C15.0651 440.506 16.1971 441.137 16.9657 442.398C17.7483 443.644 18.1396 445.459 18.1396 447.842C18.1396 450.225 17.7483 452.047 16.9657 453.308C16.1971 454.569 15.0651 455.199 13.5698 455.199C12.0885 455.199 10.9565 454.569 10.1739 453.308C9.3913 452.047 9 450.225 9 447.842C9 445.473 9.3913 443.658 10.1739 442.398C10.9565 441.137 12.0885 440.506 13.5698 440.506ZM10.4883 447.842C10.4883 449.533 10.6421 450.856 10.9495 451.812L15.6032 442.605C15.114 441.954 14.4363 441.629 13.5698 441.629C12.6055 441.629 11.8509 442.141 11.3059 443.166C10.7608 444.178 10.4883 445.737 10.4883 447.842ZM13.5698 454.056C14.5481 454.056 15.3097 453.551 15.8547 452.539C16.3997 451.514 16.6722 449.948 16.6722 447.842C16.6722 446.055 16.4976 444.67 16.1482 443.686L11.4945 452.976C11.9976 453.696 12.6894 454.056 13.5698 454.056Z" fill="url(#paint29_linear_175_198)" fill-opacity="0.6"/>
<path d="M14.8276 477.641H17.909V478.743H9.92235V477.641H13.486V465.962L10.09 467.977L9.5031 467.042L13.6956 464.465H14.8276V477.641Z" fill="url(#paint30_linear_175_198)" fill-opacity="0.6"/>
<path d="M14.8276 501.392H17.909V502.494H9.92235V501.392H13.486V489.713L10.09 491.728L9.5031 490.793L13.6956 488.216H14.8276V501.392Z" fill="url(#paint31_linear_175_198)" fill-opacity="0.6"/>
<path d="M53.7577 335.135H56.8392V336.236H48.8525V335.135H52.4162V323.455L49.0202 325.471L48.4333 324.536L52.6258 321.959H53.7577V335.135Z" fill="url(#paint32_linear_175_198)" fill-opacity="0.6"/>
<path d="M52.5 345.502C53.9953 345.502 55.1273 346.133 55.8959 347.393C56.6785 348.64 57.0698 350.455 57.0698 352.838C57.0698 355.221 56.6785 357.043 55.8959 358.304C55.1273 359.565 53.9953 360.195 52.5 360.195C51.0187 360.195 49.8867 359.565 49.1041 358.304C48.3215 357.043 47.9302 355.221 47.9302 352.838C47.9302 350.469 48.3215 348.654 49.1041 347.393C49.8867 346.133 51.0187 345.502 52.5 345.502ZM49.4185 352.838C49.4185 354.529 49.5723 355.852 49.8797 356.808L54.5334 347.601C54.0442 346.95 53.3664 346.624 52.5 346.624C51.5357 346.624 50.7811 347.137 50.2361 348.162C49.691 349.174 49.4185 350.732 49.4185 352.838ZM52.5 359.052C53.4782 359.052 54.2399 358.546 54.7849 357.535C55.3299 356.51 55.6024 354.944 55.6024 352.838C55.6024 351.051 55.4277 349.665 55.0784 348.682L50.4247 357.971C50.9278 358.692 51.6196 359.052 52.5 359.052Z" fill="url(#paint33_linear_175_198)" fill-opacity="0.6"/>
<path d="M53.7577 382.637H56.8392V383.738H48.8525V382.637H52.4162V370.957L49.0202 372.973L48.4333 372.038L52.6258 369.461H53.7577V382.637Z" fill="url(#paint34_linear_175_198)" fill-opacity="0.6"/>
<path d="M53.7577 406.388H56.8392V407.489H48.8525V406.388H52.4162V394.708L49.0202 396.724L48.4333 395.789L52.6258 393.212H53.7577V406.388Z" fill="url(#paint35_linear_175_198)" fill-opacity="0.6"/>
<path d="M52.5 416.755C53.9953 416.755 55.1273 417.386 55.8959 418.646C56.6785 419.893 57.0698 421.708 57.0698 424.091C57.0698 426.474 56.6785 428.296 55.8959 429.557C55.1273 430.818 53.9953 431.448 52.5 431.448C51.0187 431.448 49.8867 430.818 49.1041 429.557C48.3215 428.296 47.9302 426.474 47.9302 424.091C47.9302 421.722 48.3215 419.907 49.1041 418.646C49.8867 417.386 51.0187 416.755 52.5 416.755ZM49.4185 424.091C49.4185 425.782 49.5723 427.105 49.8797 428.061L54.5334 418.854C54.0442 418.203 53.3664 417.878 52.5 417.878C51.5357 417.878 50.7811 418.39 50.2361 419.415C49.691 420.427 49.4185 421.985 49.4185 424.091ZM52.5 430.305C53.4782 430.305 54.2399 429.8 54.7849 428.788C55.3299 427.763 55.6024 426.197 55.6024 424.091C55.6024 422.304 55.4277 420.919 55.0784 419.935L50.4247 429.225C50.9278 429.945 51.6196 430.305 52.5 430.305Z" fill="url(#paint36_linear_175_198)" fill-opacity="0.6"/>
<path d="M53.7577 453.89H56.8392V454.992H48.8525V453.89H52.4162V442.21L49.0202 444.226L48.4333 443.291L52.6258 440.714H53.7577V453.89Z" fill="url(#paint37_linear_175_198)" fill-opacity="0.6"/>
<path d="M53.7577 477.641H56.8392V478.743H48.8525V477.641H52.4162V465.962L49.0202 467.977L48.4333 467.042L52.6258 464.465H53.7577V477.641Z" fill="url(#paint38_linear_175_198)" fill-opacity="0.6"/>
<path d="M52.5 488.008C53.9953 488.008 55.1273 488.639 55.8959 489.9C56.6785 491.147 57.0698 492.962 57.0698 495.345C57.0698 497.728 56.6785 499.549 55.8959 500.81C55.1273 502.071 53.9953 502.701 52.5 502.701C51.0187 502.701 49.8867 502.071 49.1041 500.81C48.3215 499.549 47.9302 497.728 47.9302 495.345C47.9302 492.975 48.3215 491.16 49.1041 489.9C49.8867 488.639 51.0187 488.008 52.5 488.008ZM49.4185 495.345C49.4185 497.035 49.5723 498.358 49.8797 499.314L54.5334 490.107C54.0442 489.456 53.3664 489.131 52.5 489.131C51.5357 489.131 50.7811 489.643 50.2361 490.669C49.691 491.68 49.4185 493.239 49.4185 495.345ZM52.5 501.558C53.4782 501.558 54.2399 501.053 54.7849 500.041C55.3299 499.016 55.6024 497.451 55.6024 495.345C55.6024 493.557 55.4277 492.172 55.0784 491.188L50.4247 500.478C50.9278 501.198 51.6196 501.558 52.5 501.558Z" fill="url(#paint39_linear_175_198)" fill-opacity="0.6"/>
<path d="M53.7577 525.143H56.8392V526.245H48.8525V525.143H52.4162V513.464L49.0202 515.48L48.4333 514.544L52.6258 511.967H53.7577V525.143Z" fill="url(#paint40_linear_175_198)" fill-opacity="0.6"/>
<path d="M52.5 535.511C53.9953 535.511 55.1273 536.141 55.8959 537.402C56.6785 538.649 57.0698 540.464 57.0698 542.847C57.0698 545.23 56.6785 547.052 55.8959 548.312C55.1273 549.573 53.9953 550.204 52.5 550.204C51.0187 550.204 49.8867 549.573 49.1041 548.312C48.3215 547.052 47.9302 545.23 47.9302 542.847C47.9302 540.478 48.3215 538.663 49.1041 537.402C49.8867 536.141 51.0187 535.511 52.5 535.511ZM49.4185 542.847C49.4185 544.537 49.5723 545.86 49.8797 546.816L54.5334 537.61C54.0442 536.958 53.3664 536.633 52.5 536.633C51.5357 536.633 50.7811 537.145 50.2361 538.171C49.691 539.182 49.4185 540.741 49.4185 542.847ZM52.5 549.061C53.4782 549.061 54.2399 548.555 54.7849 547.543C55.3299 546.518 55.6024 544.953 55.6024 542.847C55.6024 541.059 55.4277 539.674 55.0784 538.69L50.4247 547.98C50.9278 548.7 51.6196 549.061 52.5 549.061Z" fill="url(#paint41_linear_175_198)" fill-opacity="0.6"/>
<path d="M91.4302 321.751C92.9255 321.751 94.0575 322.381 94.8261 323.642C95.6087 324.889 96 326.704 96 329.087C96 331.47 95.6087 333.292 94.8261 334.553C94.0575 335.814 92.9255 336.444 91.4302 336.444C89.9489 336.444 88.8169 335.814 88.0343 334.553C87.2517 333.292 86.8604 331.47 86.8604 329.087C86.8604 326.718 87.2517 324.903 88.0343 323.642C88.8169 322.381 89.9489 321.751 91.4302 321.751ZM88.3487 329.087C88.3487 330.777 88.5024 332.101 88.8099 333.057L93.4636 323.85C92.9744 323.199 92.2966 322.873 91.4302 322.873C90.4659 322.873 89.7113 323.386 89.1663 324.411C88.6212 325.423 88.3487 326.981 88.3487 329.087ZM91.4302 335.301C92.4084 335.301 93.1701 334.795 93.7151 333.784C94.2601 332.759 94.5326 331.193 94.5326 329.087C94.5326 327.3 94.3579 325.914 94.0086 324.931L89.3549 334.22C89.858 334.941 90.5498 335.301 91.4302 335.301Z" fill="url(#paint42_linear_175_198)" fill-opacity="0.6"/>
<path d="M92.6879 358.886H95.7694V359.987H87.7827V358.886H91.3463V347.206L87.9504 349.222L87.3635 348.287L91.556 345.71H92.6879V358.886Z" fill="url(#paint43_linear_175_198)" fill-opacity="0.6"/>
<path d="M92.6879 382.637H95.7694V383.738H87.7827V382.637H91.3463V370.957L87.9504 372.973L87.3635 372.038L91.556 369.461H92.6879V382.637Z" fill="url(#paint44_linear_175_198)" fill-opacity="0.6"/>
<path d="M91.4302 393.004C92.9255 393.004 94.0575 393.635 94.8261 394.895C95.6087 396.142 96 397.957 96 400.34C96 402.723 95.6087 404.545 94.8261 405.806C94.0575 407.067 92.9255 407.697 91.4302 407.697C89.9489 407.697 88.8169 407.067 88.0343 405.806C87.2517 404.545 86.8604 402.723 86.8604 400.34C86.8604 397.971 87.2517 396.156 88.0343 394.895C88.8169 393.635 89.9489 393.004 91.4302 393.004ZM88.3487 400.34C88.3487 402.031 88.5024 403.354 88.8099 404.31L93.4636 395.103C92.9744 394.452 92.2966 394.126 91.4302 394.126C90.4659 394.126 89.7113 394.639 89.1663 395.664C88.6212 396.676 88.3487 398.234 88.3487 400.34ZM91.4302 406.554C92.4084 406.554 93.1701 406.049 93.7151 405.037C94.2601 404.012 94.5326 402.446 94.5326 400.34C94.5326 398.553 94.3579 397.168 94.0086 396.184L89.3549 405.474C89.858 406.194 90.5498 406.554 91.4302 406.554Z" fill="url(#paint45_linear_175_198)" fill-opacity="0.6"/>
<path d="M91.4302 416.755C92.9255 416.755 94.0575 417.386 94.8261 418.646C95.6087 419.893 96 421.708 96 424.091C96 426.474 95.6087 428.296 94.8261 429.557C94.0575 430.818 92.9255 431.448 91.4302 431.448C89.9489 431.448 88.8169 430.818 88.0343 429.557C87.2517 428.296 86.8604 426.474 86.8604 424.091C86.8604 421.722 87.2517 419.907 88.0343 418.646C88.8169 417.386 89.9489 416.755 91.4302 416.755ZM88.3487 424.091C88.3487 425.782 88.5024 427.105 88.8099 428.061L93.4636 418.854C92.9744 418.203 92.2966 417.878 91.4302 417.878C90.4659 417.878 89.7113 418.39 89.1663 419.415C88.6212 420.427 88.3487 421.985 88.3487 424.091ZM91.4302 430.305C92.4084 430.305 93.1701 429.8 93.7151 428.788C94.2601 427.763 94.5326 426.197 94.5326 424.091C94.5326 422.304 94.3579 420.919 94.0086 419.935L89.3549 429.225C89.858 429.945 90.5498 430.305 91.4302 430.305Z" fill="url(#paint46_linear_175_198)" fill-opacity="0.6"/>
<g opacity="0.6">
<path d="M919.93 -2C921.356 -2 922.436 -1.39504 923.17 -0.185123C923.916 1.0115 924.29 2.75325 924.29 5.04013C924.29 7.32701 923.916 9.0754 923.17 10.2853C922.436 11.4952 921.356 12.1002 919.93 12.1002C918.517 12.1002 917.437 11.4952 916.69 10.2853C915.943 9.0754 915.57 7.32701 915.57 5.04013C915.57 2.76654 915.943 1.02479 916.69 -0.185123C917.437 -1.39504 918.517 -2 919.93 -2ZM916.99 5.04013C916.99 6.66222 917.137 7.93196 917.43 8.84937L921.87 0.0143142C921.403 -0.610588 920.756 -0.92304 919.93 -0.92304C919.01 -0.92304 918.29 -0.431095 917.77 0.552794C917.25 1.52339 916.99 3.01917 916.99 5.04013ZM919.93 11.0033C920.863 11.0033 921.59 10.518 922.11 9.5474C922.63 8.56351 922.89 7.06109 922.89 5.04013C922.89 3.32497 922.723 1.99539 922.39 1.05139L917.95 9.96622C918.43 10.6576 919.09 11.0033 919.93 11.0033Z" fill="url(#paint47_linear_175_198)"/>
<path d="M921.13 33.6365H924.07V34.6936H916.45V33.6365H919.85V22.4282L916.61 24.3627L916.05 23.4653L920.05 20.9922H921.13V33.6365Z" fill="url(#paint48_linear_175_198)"/>
<path d="M919.93 43.5856C921.356 43.5856 922.436 44.1906 923.17 45.4005C923.916 46.5971 924.29 48.3389 924.29 50.6257C924.29 52.9126 923.916 54.661 923.17 55.8709C922.436 57.0808 921.356 57.6858 919.93 57.6858C918.517 57.6858 917.437 57.0808 916.69 55.8709C915.943 54.661 915.57 52.9126 915.57 50.6257C915.57 48.3521 915.943 46.6104 916.69 45.4005C917.437 44.1906 918.517 43.5856 919.93 43.5856ZM916.99 50.6257C916.99 52.2478 917.137 53.5176 917.43 54.435L921.87 45.5999C921.403 44.975 920.756 44.6626 919.93 44.6626C919.01 44.6626 918.29 45.1545 917.77 46.1384C917.25 47.109 916.99 48.6048 916.99 50.6257ZM919.93 56.5889C920.863 56.5889 921.59 56.1036 922.11 55.133C922.63 54.1491 922.89 52.6467 922.89 50.6257C922.89 48.9106 922.723 47.581 922.39 46.637L917.95 55.5518C918.43 56.2432 919.09 56.5889 919.93 56.5889Z" fill="url(#paint49_linear_175_198)"/>
<path d="M921.13 79.2221H924.07V80.2792H916.45V79.2221H919.85V68.0138L916.61 69.9483L916.05 69.0509L920.05 66.5778H921.13V79.2221Z" fill="url(#paint50_linear_175_198)"/>
<path d="M921.13 102.015H924.07V103.072H916.45V102.015H919.85V90.8066L916.61 92.7411L916.05 91.8437L920.05 89.3706H921.13V102.015Z" fill="url(#paint51_linear_175_198)"/>
<path d="M919.93 111.964C921.356 111.964 922.436 112.569 923.17 113.779C923.916 114.976 924.29 116.717 924.29 119.004C924.29 121.291 923.916 123.039 923.17 124.249C922.436 125.459 921.356 126.064 919.93 126.064C918.517 126.064 917.437 125.459 916.69 124.249C915.943 123.039 915.57 121.291 915.57 119.004C915.57 116.731 915.943 114.989 916.69 113.779C917.437 112.569 918.517 111.964 919.93 111.964ZM916.99 119.004C916.99 120.626 917.137 121.896 917.43 122.813L921.87 113.978C921.403 113.353 920.756 113.041 919.93 113.041C919.01 113.041 918.29 113.533 917.77 114.517C917.25 115.487 916.99 116.983 916.99 119.004ZM919.93 124.967C920.863 124.967 921.59 124.482 922.11 123.511C922.63 122.528 922.89 121.025 922.89 119.004C922.89 117.289 922.723 115.959 922.39 115.015L917.95 123.93C918.43 124.622 919.09 124.967 919.93 124.967Z" fill="url(#paint52_linear_175_198)"/>
<path d="M921.13 147.601H924.07V148.658H916.45V147.601H919.85V136.392L916.61 138.327L916.05 137.429L920.05 134.956H921.13V147.601Z" fill="url(#paint53_linear_175_198)"/>
<path d="M919.93 157.55C921.356 157.55 922.436 158.155 923.17 159.365C923.916 160.561 924.29 162.303 924.29 164.59C924.29 166.877 923.916 168.625 923.17 169.835C922.436 171.045 921.356 171.65 919.93 171.65C918.517 171.65 917.437 171.045 916.69 169.835C915.943 168.625 915.57 166.877 915.57 164.59C915.57 162.316 915.943 160.574 916.69 159.365C917.437 158.155 918.517 157.55 919.93 157.55ZM916.99 164.59C916.99 166.212 917.137 167.482 917.43 168.399L921.87 159.564C921.403 158.939 920.756 158.627 919.93 158.627C919.01 158.627 918.29 159.119 917.77 160.102C917.25 161.073 916.99 162.569 916.99 164.59ZM919.93 170.553C920.863 170.553 921.59 170.068 922.11 169.097C922.63 168.113 922.89 166.611 922.89 164.59C922.89 162.875 922.723 161.545 922.39 160.601L917.95 169.516C918.43 170.207 919.09 170.553 919.93 170.553Z" fill="url(#paint54_linear_175_198)"/>
<path d="M919.93 180.342C921.356 180.342 922.436 180.947 923.17 182.157C923.916 183.354 924.29 185.096 924.29 187.383C924.29 189.669 923.916 191.418 923.17 192.628C922.436 193.838 921.356 194.443 919.93 194.443C918.517 194.443 917.437 193.838 916.69 192.628C915.943 191.418 915.57 189.669 915.57 187.383C915.57 185.109 915.943 183.367 916.69 182.157C917.437 180.947 918.517 180.342 919.93 180.342ZM916.99 187.383C916.99 189.005 917.137 190.274 917.43 191.192L921.87 182.357C921.403 181.732 920.756 181.419 919.93 181.419C919.01 181.419 918.29 181.911 917.77 182.895C917.25 183.866 916.99 185.362 916.99 187.383ZM919.93 193.346C920.863 193.346 921.59 192.86 922.11 191.89C922.63 190.906 922.89 189.404 922.89 187.383C922.89 185.667 922.723 184.338 922.39 183.394L917.95 192.309C918.43 193 919.09 193.346 919.93 193.346Z" fill="url(#paint55_linear_175_198)"/>
<path d="M921.13 215.979H924.07V217.036H916.45V215.979H919.85V204.771L916.61 206.705L916.05 205.808L920.05 203.335H921.13V215.979Z" fill="url(#paint56_linear_175_198)"/>
<path d="M919.93 225.928C921.356 225.928 922.436 226.533 923.17 227.743C923.916 228.94 924.29 230.681 924.29 232.968C924.29 235.255 923.916 237.003 923.17 238.213C922.436 239.423 921.356 240.028 919.93 240.028C918.517 240.028 917.437 239.423 916.69 238.213C915.943 237.003 915.57 235.255 915.57 232.968C915.57 230.695 915.943 228.953 916.69 227.743C917.437 226.533 918.517 225.928 919.93 225.928ZM916.99 232.968C916.99 234.59 917.137 235.86 917.43 236.777L921.87 227.942C921.403 227.317 920.756 227.005 919.93 227.005C919.01 227.005 918.29 227.497 917.77 228.481C917.25 229.451 916.99 230.947 916.99 232.968ZM919.93 238.931C920.863 238.931 921.59 238.446 922.11 237.475C922.63 236.492 922.89 234.989 922.89 232.968C922.89 231.253 922.723 229.923 922.39 228.979L917.95 237.894C918.43 238.586 919.09 238.931 919.93 238.931Z" fill="url(#paint57_linear_175_198)"/>
<path d="M921.13 261.565H924.07V262.622H916.45V261.565H919.85V250.356L916.61 252.291L916.05 251.393L920.05 248.92H921.13V261.565Z" fill="url(#paint58_linear_175_198)"/>
<path d="M921.13 284.357H924.07V285.414H916.45V284.357H919.85V273.149L916.61 275.084L916.05 274.186L920.05 271.713H921.13V284.357Z" fill="url(#paint59_linear_175_198)"/>
<path d="M957.07 43.5856C958.497 43.5856 959.577 44.1906 960.31 45.4005C961.057 46.5971 961.43 48.3389 961.43 50.6257C961.43 52.9126 961.057 54.661 960.31 55.8709C959.577 57.0808 958.497 57.6858 957.07 57.6858C955.657 57.6858 954.577 57.0808 953.83 55.8709C953.084 54.661 952.71 52.9126 952.71 50.6257C952.71 48.3521 953.084 46.6104 953.83 45.4005C954.577 44.1906 955.657 43.5856 957.07 43.5856ZM954.13 50.6257C954.13 52.2478 954.277 53.5176 954.57 54.435L959.01 45.5999C958.543 44.975 957.897 44.6626 957.07 44.6626C956.15 44.6626 955.43 45.1545 954.91 46.1384C954.39 47.109 954.13 48.6048 954.13 50.6257ZM957.07 56.5889C958.003 56.5889 958.73 56.1036 959.25 55.133C959.77 54.1491 960.03 52.6467 960.03 50.6257C960.03 48.9106 959.863 47.581 959.53 46.637L955.09 55.5518C955.57 56.2432 956.23 56.5889 957.07 56.5889Z" fill="url(#paint60_linear_175_198)"/>
<path d="M958.27 79.2221H961.21V80.2792H953.59V79.2221H956.99V68.0138L953.75 69.9483L953.19 69.0509L957.19 66.5778H958.27V79.2221Z" fill="url(#paint61_linear_175_198)"/>
<path d="M957.07 89.1712C958.497 89.1712 959.577 89.7762 960.31 90.9861C961.057 92.1827 961.43 93.9245 961.43 96.2113C961.43 98.4982 961.057 100.247 960.31 101.457C959.577 102.666 958.497 103.271 957.07 103.271C955.657 103.271 954.577 102.666 953.83 101.457C953.084 100.247 952.71 98.4982 952.71 96.2113C952.71 93.9378 953.084 92.196 953.83 90.9861C954.577 89.7762 955.657 89.1712 957.07 89.1712ZM954.13 96.2113C954.13 97.8334 954.277 99.1032 954.57 100.021L959.01 91.1855C958.543 90.5606 957.897 90.2482 957.07 90.2482C956.15 90.2482 955.43 90.7401 954.91 91.724C954.39 92.6946 954.13 94.1904 954.13 96.2113ZM957.07 102.174C958.003 102.174 958.73 101.689 959.25 100.719C959.77 99.7347 960.03 98.2323 960.03 96.2113C960.03 94.4962 959.863 93.1666 959.53 92.2226L955.09 101.137C955.57 101.829 956.23 102.174 957.07 102.174Z" fill="url(#paint62_linear_175_198)"/>
<path d="M957.07 111.964C958.497 111.964 959.577 112.569 960.31 113.779C961.057 114.976 961.43 116.717 961.43 119.004C961.43 121.291 961.057 123.039 960.31 124.249C959.577 125.459 958.497 126.064 957.07 126.064C955.657 126.064 954.577 125.459 953.83 124.249C953.084 123.039 952.71 121.291 952.71 119.004C952.71 116.731 953.084 114.989 953.83 113.779C954.577 112.569 955.657 111.964 957.07 111.964ZM954.13 119.004C954.13 120.626 954.277 121.896 954.57 122.813L959.01 113.978C958.543 113.353 957.897 113.041 957.07 113.041C956.15 113.041 955.43 113.533 954.91 114.517C954.39 115.487 954.13 116.983 954.13 119.004ZM957.07 124.967C958.003 124.967 958.73 124.482 959.25 123.511C959.77 122.528 960.03 121.025 960.03 119.004C960.03 117.289 959.863 115.959 959.53 115.015L955.09 123.93C955.57 124.622 956.23 124.967 957.07 124.967Z" fill="url(#paint63_linear_175_198)"/>
<path d="M958.27 147.601H961.21V148.658H953.59V147.601H956.99V136.392L953.75 138.327L953.19 137.429L957.19 134.956H958.27V147.601Z" fill="url(#paint64_linear_175_198)"/>
<path d="M957.07 157.55C958.497 157.55 959.577 158.155 960.31 159.365C961.057 160.561 961.43 162.303 961.43 164.59C961.43 166.877 961.057 168.625 960.31 169.835C959.577 171.045 958.497 171.65 957.07 171.65C955.657 171.65 954.577 171.045 953.83 169.835C953.084 168.625 952.71 166.877 952.71 164.59C952.71 162.316 953.084 160.574 953.83 159.365C954.577 158.155 955.657 157.55 957.07 157.55ZM954.13 164.59C954.13 166.212 954.277 167.482 954.57 168.399L959.01 159.564C958.543 158.939 957.897 158.627 957.07 158.627C956.15 158.627 955.43 159.119 954.91 160.102C954.39 161.073 954.13 162.569 954.13 164.59ZM957.07 170.553C958.003 170.553 958.73 170.068 959.25 169.097C959.77 168.113 960.03 166.611 960.03 164.59C960.03 162.875 959.863 161.545 959.53 160.601L955.09 169.516C955.57 170.207 956.23 170.553 957.07 170.553Z" fill="url(#paint65_linear_175_198)"/>
<path d="M958.27 193.186H961.21V194.243H953.59V193.186H956.99V181.978L953.75 183.912L953.19 183.015L957.19 180.542H958.27V193.186Z" fill="url(#paint66_linear_175_198)"/>
<path d="M957.07 203.135C958.497 203.135 959.577 203.74 960.31 204.95C961.057 206.147 961.43 207.888 961.43 210.175C961.43 212.462 961.057 214.211 960.31 215.421C959.577 216.63 958.497 217.235 957.07 217.235C955.657 217.235 954.577 216.63 953.83 215.421C953.084 214.211 952.71 212.462 952.71 210.175C952.71 207.902 953.084 206.16 953.83 204.95C954.577 203.74 955.657 203.135 957.07 203.135ZM954.13 210.175C954.13 211.797 954.277 213.067 954.57 213.985L959.01 205.15C958.543 204.525 957.897 204.212 957.07 204.212C956.15 204.212 955.43 204.704 954.91 205.688C954.39 206.659 954.13 208.154 954.13 210.175ZM957.07 216.139C958.003 216.139 958.73 215.653 959.25 214.683C959.77 213.699 960.03 212.196 960.03 210.175C960.03 208.46 959.863 207.131 959.53 206.187L955.09 215.101C955.57 215.793 956.23 216.139 957.07 216.139Z" fill="url(#paint67_linear_175_198)"/>
<path d="M957.07 225.928C958.497 225.928 959.577 226.533 960.31 227.743C961.057 228.94 961.43 230.681 961.43 232.968C961.43 235.255 961.057 237.003 960.31 238.213C959.577 239.423 958.497 240.028 957.07 240.028C955.657 240.028 954.577 239.423 953.83 238.213C953.084 237.003 952.71 235.255 952.71 232.968C952.71 230.695 953.084 228.953 953.83 227.743C954.577 226.533 955.657 225.928 957.07 225.928ZM954.13 232.968C954.13 234.59 954.277 235.86 954.57 236.777L959.01 227.942C958.543 227.317 957.897 227.005 957.07 227.005C956.15 227.005 955.43 227.497 954.91 228.481C954.39 229.451 954.13 230.947 954.13 232.968ZM957.07 238.931C958.003 238.931 958.73 238.446 959.25 237.475C959.77 236.492 960.03 234.989 960.03 232.968C960.03 231.253 959.863 229.923 959.53 228.979L955.09 237.894C955.57 238.586 956.23 238.931 957.07 238.931Z" fill="url(#paint68_linear_175_198)"/>
<path d="M958.27 261.565H961.21V262.622H953.59V261.565H956.99V250.356L953.75 252.291L953.19 251.393L957.19 248.92H958.27V261.565Z" fill="url(#paint69_linear_175_198)"/>
<path d="M957.07 271.514C958.497 271.514 959.577 272.119 960.31 273.329C961.057 274.525 961.43 276.267 961.43 278.554C961.43 280.841 961.057 282.589 960.31 283.799C959.577 285.009 958.497 285.614 957.07 285.614C955.657 285.614 954.577 285.009 953.83 283.799C953.084 282.589 952.71 280.841 952.71 278.554C952.71 276.28 953.084 274.538 953.83 273.329C954.577 272.119 955.657 271.514 957.07 271.514ZM954.13 278.554C954.13 280.176 954.277 281.446 954.57 282.363L959.01 273.528C958.543 272.903 957.897 272.591 957.07 272.591C956.15 272.591 955.43 273.083 954.91 274.066C954.39 275.037 954.13 276.533 954.13 278.554ZM957.07 284.517C958.003 284.517 958.73 284.032 959.25 283.061C959.77 282.077 960.03 280.575 960.03 278.554C960.03 276.839 959.863 275.509 959.53 274.565L955.09 283.48C955.57 284.171 956.23 284.517 957.07 284.517Z" fill="url(#paint70_linear_175_198)"/>
<path d="M958.27 307.15H961.21V308.207H953.59V307.15H956.99V295.942L953.75 297.876L953.19 296.979L957.19 294.506H958.27V307.15Z" fill="url(#paint71_linear_175_198)"/>
<path d="M958.27 329.943H961.21V331H953.59V329.943H956.99V318.735L953.75 320.669L953.19 319.772L957.19 317.299H958.27V329.943Z" fill="url(#paint72_linear_175_198)"/>
<path d="M901.36 66.3784C902.786 66.3784 903.866 66.9834 904.599 68.1933C905.346 69.3899 905.719 71.1317 905.719 73.4185C905.719 75.7054 905.346 77.4538 904.599 78.6637C903.866 79.8736 902.786 80.4786 901.36 80.4786C899.946 80.4786 898.867 79.8736 898.12 78.6637C897.373 77.4538 897 75.7054 897 73.4185C897 71.145 897.373 69.4032 898.12 68.1933C898.867 66.9834 899.946 66.3784 901.36 66.3784ZM898.42 73.4185C898.42 75.0406 898.567 76.3104 898.86 77.2278L903.3 68.3927C902.833 67.7678 902.186 67.4554 901.36 67.4554C900.44 67.4554 899.72 67.9473 899.2 68.9312C898.68 69.9018 898.42 71.3976 898.42 73.4185ZM901.36 79.3817C902.293 79.3817 903.02 78.8964 903.54 77.9258C904.06 76.9419 904.319 75.4395 904.319 73.4185C904.319 71.7034 904.153 70.3738 903.82 69.4298L899.38 78.3446C899.86 79.036 900.52 79.3817 901.36 79.3817Z" fill="url(#paint73_linear_175_198)"/>
<path d="M901.36 89.1712C902.786 89.1712 903.866 89.7762 904.599 90.9861C905.346 92.1827 905.719 93.9245 905.719 96.2113C905.719 98.4982 905.346 100.247 904.599 101.457C903.866 102.666 902.786 103.271 901.36 103.271C899.946 103.271 898.867 102.666 898.12 101.457C897.373 100.247 897 98.4982 897 96.2113C897 93.9378 897.373 92.196 898.12 90.9861C898.867 89.7762 899.946 89.1712 901.36 89.1712ZM898.42 96.2113C898.42 97.8334 898.567 99.1032 898.86 100.021L903.3 91.1855C902.833 90.5606 902.186 90.2482 901.36 90.2482C900.44 90.2482 899.72 90.7401 899.2 91.724C898.68 92.6946 898.42 94.1904 898.42 96.2113ZM901.36 102.174C902.293 102.174 903.02 101.689 903.54 100.719C904.06 99.7347 904.319 98.2323 904.319 96.2113C904.319 94.4962 904.153 93.1666 903.82 92.2226L899.38 101.137C899.86 101.829 900.52 102.174 901.36 102.174Z" fill="url(#paint74_linear_175_198)"/>
<path d="M902.56 124.808H905.499V125.865H897.88V124.808H901.28V113.599L898.04 115.534L897.48 114.636L901.48 112.163H902.56V124.808Z" fill="url(#paint75_linear_175_198)"/>
<path d="M901.36 134.757C902.786 134.757 903.866 135.362 904.599 136.572C905.346 137.768 905.719 139.51 905.719 141.797C905.719 144.084 905.346 145.832 904.599 147.042C903.866 148.252 902.786 148.857 901.36 148.857C899.946 148.857 898.867 148.252 898.12 147.042C897.373 145.832 897 144.084 897 141.797C897 139.523 897.373 137.782 898.12 136.572C898.867 135.362 899.946 134.757 901.36 134.757ZM898.42 141.797C898.42 143.419 898.567 144.689 898.86 145.606L903.3 136.771C902.833 136.146 902.186 135.834 901.36 135.834C900.44 135.834 899.72 136.326 899.2 137.31C898.68 138.28 898.42 139.776 898.42 141.797ZM901.36 147.76C902.293 147.76 903.02 147.275 903.54 146.304C904.06 145.32 904.319 143.818 904.319 141.797C904.319 140.082 904.153 138.752 903.82 137.808L899.38 146.723C899.86 147.414 900.52 147.76 901.36 147.76Z" fill="url(#paint76_linear_175_198)"/>
<path d="M902.56 170.393H905.499V171.45H897.88V170.393H901.28V159.185L898.04 161.12L897.48 160.222L901.48 157.749H902.56V170.393Z" fill="url(#paint77_linear_175_198)"/>
<path d="M902.56 193.186H905.499V194.243H897.88V193.186H901.28V181.978L898.04 183.912L897.48 183.015L901.48 180.542H902.56V193.186Z" fill="url(#paint78_linear_175_198)"/>
<path d="M939.7 33.6365H942.64V34.6936H935.02V33.6365H938.42V22.4282L935.18 24.3627L934.62 23.4653L938.62 20.9922H939.7V33.6365Z" fill="url(#paint79_linear_175_198)"/>
<path d="M938.5 43.5856C939.927 43.5856 941.006 44.1906 941.74 45.4005C942.486 46.5971 942.86 48.3389 942.86 50.6257C942.86 52.9126 942.486 54.661 941.74 55.8709C941.006 57.0808 939.927 57.6858 938.5 57.6858C937.087 57.6858 936.007 57.0808 935.26 55.8709C934.514 54.661 934.14 52.9126 934.14 50.6257C934.14 48.3521 934.514 46.6104 935.26 45.4005C936.007 44.1906 937.087 43.5856 938.5 43.5856ZM935.56 50.6257C935.56 52.2478 935.707 53.5176 936 54.435L940.44 45.5999C939.973 44.975 939.327 44.6626 938.5 44.6626C937.58 44.6626 936.86 45.1545 936.34 46.1384C935.82 47.109 935.56 48.6048 935.56 50.6257ZM938.5 56.5889C939.433 56.5889 940.16 56.1036 940.68 55.133C941.2 54.1491 941.46 52.6467 941.46 50.6257C941.46 48.9106 941.293 47.581 940.96 46.637L936.52 55.5518C937 56.2432 937.66 56.5889 938.5 56.5889Z" fill="url(#paint80_linear_175_198)"/>
<path d="M939.7 79.2221H942.64V80.2792H935.02V79.2221H938.42V68.0138L935.18 69.9483L934.62 69.0509L938.62 66.5778H939.7V79.2221Z" fill="url(#paint81_linear_175_198)"/>
<path d="M939.7 102.015H942.64V103.072H935.02V102.015H938.42V90.8066L935.18 92.7411L934.62 91.8437L938.62 89.3706H939.7V102.015Z" fill="url(#paint82_linear_175_198)"/>
<path d="M938.5 111.964C939.927 111.964 941.006 112.569 941.74 113.779C942.486 114.976 942.86 116.717 942.86 119.004C942.86 121.291 942.486 123.039 941.74 124.249C941.006 125.459 939.927 126.064 938.5 126.064C937.087 126.064 936.007 125.459 935.26 124.249C934.514 123.039 934.14 121.291 934.14 119.004C934.14 116.731 934.514 114.989 935.26 113.779C936.007 112.569 937.087 111.964 938.5 111.964ZM935.56 119.004C935.56 120.626 935.707 121.896 936 122.813L940.44 113.978C939.973 113.353 939.327 113.041 938.5 113.041C937.58 113.041 936.86 113.533 936.34 114.517C935.82 115.487 935.56 116.983 935.56 119.004ZM938.5 124.967C939.433 124.967 940.16 124.482 940.68 123.511C941.2 122.528 941.46 121.025 941.46 119.004C941.46 117.289 941.293 115.959 940.96 115.015L936.52 123.93C937 124.622 937.66 124.967 938.5 124.967Z" fill="url(#paint83_linear_175_198)"/>
<path d="M939.7 147.601H942.64V148.658H935.02V147.601H938.42V136.392L935.18 138.327L934.62 137.429L938.62 134.956H939.7V147.601Z" fill="url(#paint84_linear_175_198)"/>
<path d="M939.7 170.393H942.64V171.45H935.02V170.393H938.42V159.185L935.18 161.12L934.62 160.222L938.62 157.749H939.7V170.393Z" fill="url(#paint85_linear_175_198)"/>
<path d="M938.5 180.342C939.927 180.342 941.006 180.947 941.74 182.157C942.486 183.354 942.86 185.096 942.86 187.383C942.86 189.669 942.486 191.418 941.74 192.628C941.006 193.838 939.927 194.443 938.5 194.443C937.087 194.443 936.007 193.838 935.26 192.628C934.514 191.418 934.14 189.669 934.14 187.383C934.14 185.109 934.514 183.367 935.26 182.157C936.007 180.947 937.087 180.342 938.5 180.342ZM935.56 187.383C935.56 189.005 935.707 190.274 936 191.192L940.44 182.357C939.973 181.732 939.327 181.419 938.5 181.419C937.58 181.419 936.86 181.911 936.34 182.895C935.82 183.866 935.56 185.362 935.56 187.383ZM938.5 193.346C939.433 193.346 940.16 192.86 940.68 191.89C941.2 190.906 941.46 189.404 941.46 187.383C941.46 185.667 941.293 184.338 940.96 183.394L936.52 192.309C937 193 937.66 193.346 938.5 193.346Z" fill="url(#paint86_linear_175_198)"/>
<path d="M939.7 215.979H942.64V217.036H935.02V215.979H938.42V204.771L935.18 206.705L934.62 205.808L938.62 203.335H939.7V215.979Z" fill="url(#paint87_linear_175_198)"/>
<path d="M938.5 225.928C939.927 225.928 941.006 226.533 941.74 227.743C942.486 228.94 942.86 230.681 942.86 232.968C942.86 235.255 942.486 237.003 941.74 238.213C941.006 239.423 939.927 240.028 938.5 240.028C937.087 240.028 936.007 239.423 935.26 238.213C934.514 237.003 934.14 235.255 934.14 232.968C934.14 230.695 934.514 228.953 935.26 227.743C936.007 226.533 937.087 225.928 938.5 225.928ZM935.56 232.968C935.56 234.59 935.707 235.86 936 236.777L940.44 227.942C939.973 227.317 939.327 227.005 938.5 227.005C937.58 227.005 936.86 227.497 936.34 228.481C935.82 229.451 935.56 230.947 935.56 232.968ZM938.5 238.931C939.433 238.931 940.16 238.446 940.68 237.475C941.2 236.492 941.46 234.989 941.46 232.968C941.46 231.253 941.293 229.923 940.96 228.979L936.52 237.894C937 238.586 937.66 238.931 938.5 238.931Z" fill="url(#paint88_linear_175_198)"/>
<path d="M975.64 20.7928C977.067 20.7928 978.147 21.3978 978.88 22.6077C979.627 23.8043 980 25.546 980 27.8329C980 30.1198 979.627 31.8682 978.88 33.0781C978.147 34.288 977.067 34.893 975.64 34.893C974.227 34.893 973.147 34.288 972.401 33.0781C971.654 31.8682 971.281 30.1198 971.281 27.8329C971.281 25.5593 971.654 23.8176 972.401 22.6077C973.147 21.3978 974.227 20.7928 975.64 20.7928ZM972.701 27.8329C972.701 29.455 972.847 30.7248 973.14 31.6422L977.58 22.8071C977.114 22.1822 976.467 21.8698 975.64 21.8698C974.72 21.8698 974 22.3617 973.48 23.3456C972.96 24.3162 972.701 25.812 972.701 27.8329ZM975.64 33.7961C976.574 33.7961 977.3 33.3108 977.82 32.3402C978.34 31.3563 978.6 29.8539 978.6 27.8329C978.6 26.1178 978.433 24.7882 978.1 23.8442L973.66 32.759C974.14 33.4504 974.8 33.7961 975.64 33.7961Z" fill="url(#paint89_linear_175_198)"/>
<path d="M976.84 56.4293H979.78V57.4864H972.161V56.4293H975.56V45.221L972.321 47.1555L971.761 46.2581L975.76 43.785H976.84V56.4293Z" fill="url(#paint90_linear_175_198)"/>
<path d="M976.84 79.2221H979.78V80.2792H972.161V79.2221H975.56V68.0138L972.321 69.9483L971.761 69.0509L975.76 66.5778H976.84V79.2221Z" fill="url(#paint91_linear_175_198)"/>
<path d="M975.64 89.1712C977.067 89.1712 978.147 89.7762 978.88 90.9861C979.627 92.1827 980 93.9245 980 96.2113C980 98.4982 979.627 100.247 978.88 101.457C978.147 102.666 977.067 103.271 975.64 103.271C974.227 103.271 973.147 102.666 972.401 101.457C971.654 100.247 971.281 98.4982 971.281 96.2113C971.281 93.9378 971.654 92.196 972.401 90.9861C973.147 89.7762 974.227 89.1712 975.64 89.1712ZM972.701 96.2113C972.701 97.8334 972.847 99.1032 973.14 100.021L977.58 91.1855C977.114 90.5606 976.467 90.2482 975.64 90.2482C974.72 90.2482 974 90.7401 973.48 91.724C972.96 92.6946 972.701 94.1904 972.701 96.2113ZM975.64 102.174C976.574 102.174 977.3 101.689 977.82 100.719C978.34 99.7347 978.6 98.2323 978.6 96.2113C978.6 94.4962 978.433 93.1666 978.1 92.2226L973.66 101.137C974.14 101.829 974.8 102.174 975.64 102.174Z" fill="url(#paint92_linear_175_198)"/>
<path d="M975.64 111.964C977.067 111.964 978.147 112.569 978.88 113.779C979.627 114.976 980 116.717 980 119.004C980 121.291 979.627 123.039 978.88 124.249C978.147 125.459 977.067 126.064 975.64 126.064C974.227 126.064 973.147 125.459 972.401 124.249C971.654 123.039 971.281 121.291 971.281 119.004C971.281 116.731 971.654 114.989 972.401 113.779C973.147 112.569 974.227 111.964 975.64 111.964ZM972.701 119.004C972.701 120.626 972.847 121.896 973.14 122.813L977.58 113.978C977.114 113.353 976.467 113.041 975.64 113.041C974.72 113.041 974 113.533 973.48 114.517C972.96 115.487 972.701 116.983 972.701 119.004ZM975.64 124.967C976.574 124.967 977.3 124.482 977.82 123.511C978.34 122.528 978.6 121.025 978.6 119.004C978.6 117.289 978.433 115.959 978.1 115.015L973.66 123.93C974.14 124.622 974.8 124.967 975.64 124.967Z" fill="url(#paint93_linear_175_198)"/>
</g>
<defs>
<filter id="filter0_f_175_198" x="-558.19" y="-688.19" width="2141.38" height="1500.38" filterUnits="userSpaceOnUse" color-interpolation-filters="sRGB">
<feFlood flood-opacity="0" result="BackgroundImageFix"/>
<feBlend mode="normal" in="SourceGraphic" in2="BackgroundImageFix" result="shape"/>
<feGaussianBlur stdDeviation="200.095" result="effect1_foregroundBlur_175_198"/>
</filter>
<linearGradient id="paint0_linear_175_198" x1="52.5" y1="298" x2="52.5" y2="609.381" gradientUnits="userSpaceOnUse">
<stop stop-color="#F7DD43"/>
<stop offset="1" stop-color="#F7DD43" stop-opacity="0"/>
</linearGradient>
<linearGradient id="paint1_linear_175_198" x1="52.5" y1="298" x2="52.5" y2="609.381" gradientUnits="userSpaceOnUse">
<stop stop-color="#F7DD43"/>
<stop offset="1" stop-color="#F7DD43" stop-opacity="0"/>
</linearGradient>
<linearGradient id="paint2_linear_175_198" x1="52.5" y1="298" x2="52.5" y2="609.381" gradientUnits="userSpaceOnUse">
<stop stop-color="#F7DD43"/>
<stop offset="1" stop-color="#F7DD43" stop-opacity="0"/>
</linearGradient>
<linearGradient id="paint3_linear_175_198" x1="52.5" y1="298" x2="52.5" y2="609.381" gradientUnits="userSpaceOnUse">
<stop stop-color="#F7DD43"/>
<stop offset="1" stop-color="#F7DD43" stop-opacity="0"/>
</linearGradient>
<linearGradient id="paint4_linear_175_198" x1="52.5" y1="298" x2="52.5" y2="609.381" gradientUnits="userSpaceOnUse">
<stop stop-color="#F7DD43"/>
<stop offset="1" stop-color="#F7DD43" stop-opacity="0"/>
</linearGradient>
<linearGradient id="paint5_linear_175_198" x1="52.5" y1="298" x2="52.5" y2="609.381" gradientUnits="userSpaceOnUse">
<stop stop-color="#F7DD43"/>
<stop offset="1" stop-color="#F7DD43" stop-opacity="0"/>
</linearGradient>
<linearGradient id="paint6_linear_175_198" x1="52.5" y1="298" x2="52.5" y2="609.381" gradientUnits="userSpaceOnUse">
<stop stop-color="#F7DD43"/>
<stop offset="1" stop-color="#F7DD43" stop-opacity="0"/>
</linearGradient>
<linearGradient id="paint7_linear_175_198" x1="52.5" y1="298" x2="52.5" y2="609.381" gradientUnits="userSpaceOnUse">
<stop stop-color="#F7DD43"/>
<stop offset="1" stop-color="#F7DD43" stop-opacity="0"/>
</linearGradient>
<linearGradient id="paint8_linear_175_198" x1="52.5" y1="298" x2="52.5" y2="609.381" gradientUnits="userSpaceOnUse">
<stop stop-color="#F7DD43"/>
<stop offset="1" stop-color="#F7DD43" stop-opacity="0"/>
</linearGradient>
<linearGradient id="paint9_linear_175_198" x1="52.5" y1="298" x2="52.5" y2="609.381" gradientUnits="userSpaceOnUse">
<stop stop-color="#F7DD43"/>
<stop offset="1" stop-color="#F7DD43" stop-opacity="0"/>
</linearGradient>
<linearGradient id="paint10_linear_175_198" x1="52.5" y1="298" x2="52.5" y2="609.381" gradientUnits="userSpaceOnUse">
<stop stop-color="#F7DD43"/>
<stop offset="1" stop-color="#F7DD43" stop-opacity="0"/>
</linearGradient>
<linearGradient id="paint11_linear_175_198" x1="52.5" y1="298" x2="52.5" y2="609.381" gradientUnits="userSpaceOnUse">
<stop stop-color="#F7DD43"/>
<stop offset="1" stop-color="#F7DD43" stop-opacity="0"/>
</linearGradient>
<linearGradient id="paint12_linear_175_198" x1="52.5" y1="298" x2="52.5" y2="609.381" gradientUnits="userSpaceOnUse">
<stop stop-color="#F7DD43"/>
<stop offset="1" stop-color="#F7DD43" stop-opacity="0"/>
</linearGradient>
<linearGradient id="paint13_linear_175_198" x1="52.5" y1="298" x2="52.5" y2="609.381" gradientUnits="userSpaceOnUse">
<stop stop-color="#F7DD43"/>
<stop offset="1" stop-color="#F7DD43" stop-opacity="0"/>
</linearGradient>
<linearGradient id="paint14_linear_175_198" x1="52.5" y1="298" x2="52.5" y2="609.381" gradientUnits="userSpaceOnUse">
<stop stop-color="#F7DD43"/>
<stop offset="1" stop-color="#F7DD43" stop-opacity="0"/>
</linearGradient>
<linearGradient id="paint15_linear_175_198" x1="52.5" y1="298" x2="52.5" y2="609.381" gradientUnits="userSpaceOnUse">
<stop stop-color="#F7DD43"/>
<stop offset="1" stop-color="#F7DD43" stop-opacity="0"/>
</linearGradient>
<linearGradient id="paint16_linear_175_198" x1="52.5" y1="298" x2="52.5" y2="609.381" gradientUnits="userSpaceOnUse">
<stop stop-color="#F7DD43"/>
<stop offset="1" stop-color="#F7DD43" stop-opacity="0"/>
</linearGradient>
<linearGradient id="paint17_linear_175_198" x1="52.5" y1="298" x2="52.5" y2="609.381" gradientUnits="userSpaceOnUse">
<stop stop-color="#F7DD43"/>
<stop offset="1" stop-color="#F7DD43" stop-opacity="0"/>
</linearGradient>
<linearGradient id="paint18_linear_175_198" x1="52.5" y1="298" x2="52.5" y2="609.381" gradientUnits="userSpaceOnUse">
<stop stop-color="#F7DD43"/>
<stop offset="1" stop-color="#F7DD43" stop-opacity="0"/>
</linearGradient>
<linearGradient id="paint19_linear_175_198" x1="52.5" y1="298" x2="52.5" y2="609.381" gradientUnits="userSpaceOnUse">
<stop stop-color="#F7DD43"/>
<stop offset="1" stop-color="#F7DD43" stop-opacity="0"/>
</linearGradient>
<linearGradient id="paint20_linear_175_198" x1="52.5" y1="298" x2="52.5" y2="609.381" gradientUnits="userSpaceOnUse">
<stop stop-color="#F7DD43"/>
<stop offset="1" stop-color="#F7DD43" stop-opacity="0"/>
</linearGradient>
<linearGradient id="paint21_linear_175_198" x1="52.5" y1="298" x2="52.5" y2="609.381" gradientUnits="userSpaceOnUse">
<stop stop-color="#F7DD43"/>
<stop offset="1" stop-color="#F7DD43" stop-opacity="0"/>
</linearGradient>
<linearGradient id="paint22_linear_175_198" x1="52.5" y1="298" x2="52.5" y2="609.381" gradientUnits="userSpaceOnUse">
<stop stop-color="#F7DD43"/>
<stop offset="1" stop-color="#F7DD43" stop-opacity="0"/>
</linearGradient>
<linearGradient id="paint23_linear_175_198" x1="52.5" y1="298" x2="52.5" y2="609.381" gradientUnits="userSpaceOnUse">
<stop stop-color="#F7DD43"/>
<stop offset="1" stop-color="#F7DD43" stop-opacity="0"/>
</linearGradient>
<linearGradient id="paint24_linear_175_198" x1="52.5" y1="298" x2="52.5" y2="609.381" gradientUnits="userSpaceOnUse">
<stop stop-color="#F7DD43"/>
<stop offset="1" stop-color="#F7DD43" stop-opacity="0"/>
</linearGradient>
<linearGradient id="paint25_linear_175_198" x1="52.5" y1="298" x2="52.5" y2="609.381" gradientUnits="userSpaceOnUse">
<stop stop-color="#F7DD43"/>
<stop offset="1" stop-color="#F7DD43" stop-opacity="0"/>
</linearGradient>
<linearGradient id="paint26_linear_175_198" x1="52.5" y1="298" x2="52.5" y2="609.381" gradientUnits="userSpaceOnUse">
<stop stop-color="#F7DD43"/>
<stop offset="1" stop-color="#F7DD43" stop-opacity="0"/>
</linearGradient>
<linearGradient id="paint27_linear_175_198" x1="52.5" y1="298" x2="52.5" y2="609.381" gradientUnits="userSpaceOnUse">
<stop stop-color="#F7DD43"/>
<stop offset="1" stop-color="#F7DD43" stop-opacity="0"/>
</linearGradient>
<linearGradient id="paint28_linear_175_198" x1="52.5" y1="298" x2="52.5" y2="609.381" gradientUnits="userSpaceOnUse">
<stop stop-color="#F7DD43"/>
<stop offset="1" stop-color="#F7DD43" stop-opacity="0"/>
</linearGradient>
<linearGradient id="paint29_linear_175_198" x1="52.5" y1="298" x2="52.5" y2="609.381" gradientUnits="userSpaceOnUse">
<stop stop-color="#F7DD43"/>
<stop offset="1" stop-color="#F7DD43" stop-opacity="0"/>
</linearGradient>
<linearGradient id="paint30_linear_175_198" x1="52.5" y1="298" x2="52.5" y2="609.381" gradientUnits="userSpaceOnUse">
<stop stop-color="#F7DD43"/>
<stop offset="1" stop-color="#F7DD43" stop-opacity="0"/>
</linearGradient>
<linearGradient id="paint31_linear_175_198" x1="52.5" y1="298" x2="52.5" y2="609.381" gradientUnits="userSpaceOnUse">
<stop stop-color="#F7DD43"/>
<stop offset="1" stop-color="#F7DD43" stop-opacity="0"/>
</linearGradient>
<linearGradient id="paint32_linear_175_198" x1="52.5" y1="298" x2="52.5" y2="609.381" gradientUnits="userSpaceOnUse">
<stop stop-color="#F7DD43"/>
<stop offset="1" stop-color="#F7DD43" stop-opacity="0"/>
</linearGradient>
<linearGradient id="paint33_linear_175_198" x1="52.5" y1="298" x2="52.5" y2="609.381" gradientUnits="userSpaceOnUse">
<stop stop-color="#F7DD43"/>
<stop offset="1" stop-color="#F7DD43" stop-opacity="0"/>
</linearGradient>
<linearGradient id="paint34_linear_175_198" x1="52.5" y1="298" x2="52.5" y2="609.381" gradientUnits="userSpaceOnUse">
<stop stop-color="#F7DD43"/>
<stop offset="1" stop-color="#F7DD43" stop-opacity="0"/>
</linearGradient>
<linearGradient id="paint35_linear_175_198" x1="52.5" y1="298" x2="52.5" y2="609.381" gradientUnits="userSpaceOnUse">
<stop stop-color="#F7DD43"/>
<stop offset="1" stop-color="#F7DD43" stop-opacity="0"/>
</linearGradient>
<linearGradient id="paint36_linear_175_198" x1="52.5" y1="298" x2="52.5" y2="609.381" gradientUnits="userSpaceOnUse">
<stop stop-color="#F7DD43"/>
<stop offset="1" stop-color="#F7DD43" stop-opacity="0"/>
</linearGradient>
<linearGradient id="paint37_linear_175_198" x1="52.5" y1="298" x2="52.5" y2="609.381" gradientUnits="userSpaceOnUse">
<stop stop-color="#F7DD43"/>
<stop offset="1" stop-color="#F7DD43" stop-opacity="0"/>
</linearGradient>
<linearGradient id="paint38_linear_175_198" x1="52.5" y1="298" x2="52.5" y2="609.381" gradientUnits="userSpaceOnUse">
<stop stop-color="#F7DD43"/>
<stop offset="1" stop-color="#F7DD43" stop-opacity="0"/>
</linearGradient>
<linearGradient id="paint39_linear_175_198" x1="52.5" y1="298" x2="52.5" y2="609.381" gradientUnits="userSpaceOnUse">
<stop stop-color="#F7DD43"/>
<stop offset="1" stop-color="#F7DD43" stop-opacity="0"/>
</linearGradient>
<linearGradient id="paint40_linear_175_198" x1="52.5" y1="298" x2="52.5" y2="609.381" gradientUnits="userSpaceOnUse">
<stop stop-color="#F7DD43"/>
<stop offset="1" stop-color="#F7DD43" stop-opacity="0"/>
</linearGradient>
<linearGradient id="paint41_linear_175_198" x1="52.5" y1="298" x2="52.5" y2="609.381" gradientUnits="userSpaceOnUse">
<stop stop-color="#F7DD43"/>
<stop offset="1" stop-color="#F7DD43" stop-opacity="0"/>
</linearGradient>
<linearGradient id="paint42_linear_175_198" x1="52.5" y1="298" x2="52.5" y2="609.381" gradientUnits="userSpaceOnUse">
<stop stop-color="#F7DD43"/>
<stop offset="1" stop-color="#F7DD43" stop-opacity="0"/>
</linearGradient>
<linearGradient id="paint43_linear_175_198" x1="52.5" y1="298" x2="52.5" y2="609.381" gradientUnits="userSpaceOnUse">
<stop stop-color="#F7DD43"/>
<stop offset="1" stop-color="#F7DD43" stop-opacity="0"/>
</linearGradient>
<linearGradient id="paint44_linear_175_198" x1="52.5" y1="298" x2="52.5" y2="609.381" gradientUnits="userSpaceOnUse">
<stop stop-color="#F7DD43"/>
<stop offset="1" stop-color="#F7DD43" stop-opacity="0"/>
</linearGradient>
<linearGradient id="paint45_linear_175_198" x1="52.5" y1="298" x2="52.5" y2="609.381" gradientUnits="userSpaceOnUse">
<stop stop-color="#F7DD43"/>
<stop offset="1" stop-color="#F7DD43" stop-opacity="0"/>
</linearGradient>
<linearGradient id="paint46_linear_175_198" x1="52.5" y1="298" x2="52.5" y2="609.381" gradientUnits="userSpaceOnUse">
<stop stop-color="#F7DD43"/>
<stop offset="1" stop-color="#F7DD43" stop-opacity="0"/>
</linearGradient>
<linearGradient id="paint47_linear_175_198" x1="938.5" y1="-2" x2="938.5" y2="296.818" gradientUnits="userSpaceOnUse">
<stop stop-color="#F7DD43"/>
<stop offset="1" stop-color="#F7DD43" stop-opacity="0"/>
</linearGradient>
<linearGradient id="paint48_linear_175_198" x1="938.5" y1="-2" x2="938.5" y2="296.818" gradientUnits="userSpaceOnUse">
<stop stop-color="#F7DD43"/>
<stop offset="1" stop-color="#F7DD43" stop-opacity="0"/>
</linearGradient>
<linearGradient id="paint49_linear_175_198" x1="938.5" y1="-2" x2="938.5" y2="296.818" gradientUnits="userSpaceOnUse">
<stop stop-color="#F7DD43"/>
<stop offset="1" stop-color="#F7DD43" stop-opacity="0"/>
</linearGradient>
<linearGradient id="paint50_linear_175_198" x1="938.5" y1="-2" x2="938.5" y2="296.818" gradientUnits="userSpaceOnUse">
<stop stop-color="#F7DD43"/>
<stop offset="1" stop-color="#F7DD43" stop-opacity="0"/>
</linearGradient>
<linearGradient id="paint51_linear_175_198" x1="938.5" y1="-2" x2="938.5" y2="296.818" gradientUnits="userSpaceOnUse">
<stop stop-color="#F7DD43"/>
<stop offset="1" stop-color="#F7DD43" stop-opacity="0"/>
</linearGradient>
<linearGradient id="paint52_linear_175_198" x1="938.5" y1="-2" x2="938.5" y2="296.818" gradientUnits="userSpaceOnUse">
<stop stop-color="#F7DD43"/>
<stop offset="1" stop-color="#F7DD43" stop-opacity="0"/>
</linearGradient>
<linearGradient id="paint53_linear_175_198" x1="938.5" y1="-2" x2="938.5" y2="296.818" gradientUnits="userSpaceOnUse">
<stop stop-color="#F7DD43"/>
<stop offset="1" stop-color="#F7DD43" stop-opacity="0"/>
</linearGradient>
<linearGradient id="paint54_linear_175_198" x1="938.5" y1="-2" x2="938.5" y2="296.818" gradientUnits="userSpaceOnUse">
<stop stop-color="#F7DD43"/>
<stop offset="1" stop-color="#F7DD43" stop-opacity="0"/>
</linearGradient>
<linearGradient id="paint55_linear_175_198" x1="938.5" y1="-2" x2="938.5" y2="296.818" gradientUnits="userSpaceOnUse">
<stop stop-color="#F7DD43"/>
<stop offset="1" stop-color="#F7DD43" stop-opacity="0"/>
</linearGradient>
<linearGradient id="paint56_linear_175_198" x1="938.5" y1="-2" x2="938.5" y2="296.818" gradientUnits="userSpaceOnUse">
<stop stop-color="#F7DD43"/>
<stop offset="1" stop-color="#F7DD43" stop-opacity="0"/>
</linearGradient>
<linearGradient id="paint57_linear_175_198" x1="938.5" y1="-2" x2="938.5" y2="296.818" gradientUnits="userSpaceOnUse">
<stop stop-color="#F7DD43"/>
<stop offset="1" stop-color="#F7DD43" stop-opacity="0"/>
</linearGradient>
<linearGradient id="paint58_linear_175_198" x1="938.5" y1="-2" x2="938.5" y2="296.818" gradientUnits="userSpaceOnUse">
<stop stop-color="#F7DD43"/>
<stop offset="1" stop-color="#F7DD43" stop-opacity="0"/>
</linearGradient>
<linearGradient id="paint59_linear_175_198" x1="938.5" y1="-2" x2="938.5" y2="296.818" gradientUnits="userSpaceOnUse">
<stop stop-color="#F7DD43"/>
<stop offset="1" stop-color="#F7DD43" stop-opacity="0"/>
</linearGradient>
<linearGradient id="paint60_linear_175_198" x1="938.5" y1="-2" x2="938.5" y2="296.818" gradientUnits="userSpaceOnUse">
<stop stop-color="#F7DD43"/>
<stop offset="1" stop-color="#F7DD43" stop-opacity="0"/>
</linearGradient>
<linearGradient id="paint61_linear_175_198" x1="938.5" y1="-2" x2="938.5" y2="296.818" gradientUnits="userSpaceOnUse">
<stop stop-color="#F7DD43"/>
<stop offset="1" stop-color="#F7DD43" stop-opacity="0"/>
</linearGradient>
<linearGradient id="paint62_linear_175_198" x1="938.5" y1="-2" x2="938.5" y2="296.818" gradientUnits="userSpaceOnUse">
<stop stop-color="#F7DD43"/>
<stop offset="1" stop-color="#F7DD43" stop-opacity="0"/>
</linearGradient>
<linearGradient id="paint63_linear_175_198" x1="938.5" y1="-2" x2="938.5" y2="296.818" gradientUnits="userSpaceOnUse">
<stop stop-color="#F7DD43"/>
<stop offset="1" stop-color="#F7DD43" stop-opacity="0"/>
</linearGradient>
<linearGradient id="paint64_linear_175_198" x1="938.5" y1="-2" x2="938.5" y2="296.818" gradientUnits="userSpaceOnUse">
<stop stop-color="#F7DD43"/>
<stop offset="1" stop-color="#F7DD43" stop-opacity="0"/>
</linearGradient>
<linearGradient id="paint65_linear_175_198" x1="938.5" y1="-2" x2="938.5" y2="296.818" gradientUnits="userSpaceOnUse">
<stop stop-color="#F7DD43"/>
<stop offset="1" stop-color="#F7DD43" stop-opacity="0"/>
</linearGradient>
<linearGradient id="paint66_linear_175_198" x1="938.5" y1="-2" x2="938.5" y2="296.818" gradientUnits="userSpaceOnUse">
<stop stop-color="#F7DD43"/>
<stop offset="1" stop-color="#F7DD43" stop-opacity="0"/>
</linearGradient>
<linearGradient id="paint67_linear_175_198" x1="938.5" y1="-2" x2="938.5" y2="296.818" gradientUnits="userSpaceOnUse">
<stop stop-color="#F7DD43"/>
<stop offset="1" stop-color="#F7DD43" stop-opacity="0"/>
</linearGradient>
<linearGradient id="paint68_linear_175_198" x1="938.5" y1="-2" x2="938.5" y2="296.818" gradientUnits="userSpaceOnUse">
<stop stop-color="#F7DD43"/>
<stop offset="1" stop-color="#F7DD43" stop-opacity="0"/>
</linearGradient>
<linearGradient id="paint69_linear_175_198" x1="938.5" y1="-2" x2="938.5" y2="296.818" gradientUnits="userSpaceOnUse">
<stop stop-color="#F7DD43"/>
<stop offset="1" stop-color="#F7DD43" stop-opacity="0"/>
</linearGradient>
<linearGradient id="paint70_linear_175_198" x1="938.5" y1="-2" x2="938.5" y2="296.818" gradientUnits="userSpaceOnUse">
<stop stop-color="#F7DD43"/>
<stop offset="1" stop-color="#F7DD43" stop-opacity="0"/>
</linearGradient>
<linearGradient id="paint71_linear_175_198" x1="938.5" y1="-2" x2="938.5" y2="296.818" gradientUnits="userSpaceOnUse">
<stop stop-color="#F7DD43"/>
<stop offset="1" stop-color="#F7DD43" stop-opacity="0"/>
</linearGradient>
<linearGradient id="paint72_linear_175_198" x1="938.5" y1="-2" x2="938.5" y2="296.818" gradientUnits="userSpaceOnUse">
<stop stop-color="#F7DD43"/>
<stop offset="1" stop-color="#F7DD43" stop-opacity="0"/>
</linearGradient>
<linearGradient id="paint73_linear_175_198" x1="938.5" y1="-2" x2="938.5" y2="296.818" gradientUnits="userSpaceOnUse">
<stop stop-color="#F7DD43"/>
<stop offset="1" stop-color="#F7DD43" stop-opacity="0"/>
</linearGradient>
<linearGradient id="paint74_linear_175_198" x1="938.5" y1="-2" x2="938.5" y2="296.818" gradientUnits="userSpaceOnUse">
<stop stop-color="#F7DD43"/>
<stop offset="1" stop-color="#F7DD43" stop-opacity="0"/>
</linearGradient>
<linearGradient id="paint75_linear_175_198" x1="938.5" y1="-2" x2="938.5" y2="296.818" gradientUnits="userSpaceOnUse">
<stop stop-color="#F7DD43"/>
<stop offset="1" stop-color="#F7DD43" stop-opacity="0"/>
</linearGradient>
<linearGradient id="paint76_linear_175_198" x1="938.5" y1="-2" x2="938.5" y2="296.818" gradientUnits="userSpaceOnUse">
<stop stop-color="#F7DD43"/>
<stop offset="1" stop-color="#F7DD43" stop-opacity="0"/>
</linearGradient>
<linearGradient id="paint77_linear_175_198" x1="938.5" y1="-2" x2="938.5" y2="296.818" gradientUnits="userSpaceOnUse">
<stop stop-color="#F7DD43"/>
<stop offset="1" stop-color="#F7DD43" stop-opacity="0"/>
</linearGradient>
<linearGradient id="paint78_linear_175_198" x1="938.5" y1="-2" x2="938.5" y2="296.818" gradientUnits="userSpaceOnUse">
<stop stop-color="#F7DD43"/>
<stop offset="1" stop-color="#F7DD43" stop-opacity="0"/>
</linearGradient>
<linearGradient id="paint79_linear_175_198" x1="938.5" y1="-2" x2="938.5" y2="296.818" gradientUnits="userSpaceOnUse">
<stop stop-color="#F7DD43"/>
<stop offset="1" stop-color="#F7DD43" stop-opacity="0"/>
</linearGradient>
<linearGradient id="paint80_linear_175_198" x1="938.5" y1="-2" x2="938.5" y2="296.818" gradientUnits="userSpaceOnUse">
<stop stop-color="#F7DD43"/>
<stop offset="1" stop-color="#F7DD43" stop-opacity="0"/>
</linearGradient>
<linearGradient id="paint81_linear_175_198" x1="938.5" y1="-2" x2="938.5" y2="296.818" gradientUnits="userSpaceOnUse">
<stop stop-color="#F7DD43"/>
<stop offset="1" stop-color="#F7DD43" stop-opacity="0"/>
</linearGradient>
<linearGradient id="paint82_linear_175_198" x1="938.5" y1="-2" x2="938.5" y2="296.818" gradientUnits="userSpaceOnUse">
<stop stop-color="#F7DD43"/>
<stop offset="1" stop-color="#F7DD43" stop-opacity="0"/>
</linearGradient>
<linearGradient id="paint83_linear_175_198" x1="938.5" y1="-2" x2="938.5" y2="296.818" gradientUnits="userSpaceOnUse">
<stop stop-color="#F7DD43"/>
<stop offset="1" stop-color="#F7DD43" stop-opacity="0"/>
</linearGradient>
<linearGradient id="paint84_linear_175_198" x1="938.5" y1="-2" x2="938.5" y2="296.818" gradientUnits="userSpaceOnUse">
<stop stop-color="#F7DD43"/>
<stop offset="1" stop-color="#F7DD43" stop-opacity="0"/>
</linearGradient>
<linearGradient id="paint85_linear_175_198" x1="938.5" y1="-2" x2="938.5" y2="296.818" gradientUnits="userSpaceOnUse">
<stop stop-color="#F7DD43"/>
<stop offset="1" stop-color="#F7DD43" stop-opacity="0"/>
</linearGradient>
<linearGradient id="paint86_linear_175_198" x1="938.5" y1="-2" x2="938.5" y2="296.818" gradientUnits="userSpaceOnUse">
<stop stop-color="#F7DD43"/>
<stop offset="1" stop-color="#F7DD43" stop-opacity="0"/>
</linearGradient>
<linearGradient id="paint87_linear_175_198" x1="938.5" y1="-2" x2="938.5" y2="296.818" gradientUnits="userSpaceOnUse">
<stop stop-color="#F7DD43"/>
<stop offset="1" stop-color="#F7DD43" stop-opacity="0"/>
</linearGradient>
<linearGradient id="paint88_linear_175_198" x1="938.5" y1="-2" x2="938.5" y2="296.818" gradientUnits="userSpaceOnUse">
<stop stop-color="#F7DD43"/>
<stop offset="1" stop-color="#F7DD43" stop-opacity="0"/>
</linearGradient>
<linearGradient id="paint89_linear_175_198" x1="938.5" y1="-2" x2="938.5" y2="296.818" gradientUnits="userSpaceOnUse">
<stop stop-color="#F7DD43"/>
<stop offset="1" stop-color="#F7DD43" stop-opacity="0"/>
</linearGradient>
<linearGradient id="paint90_linear_175_198" x1="938.5" y1="-2" x2="938.5" y2="296.818" gradientUnits="userSpaceOnUse">
<stop stop-color="#F7DD43"/>
<stop offset="1" stop-color="#F7DD43" stop-opacity="0"/>
</linearGradient>
<linearGradient id="paint91_linear_175_198" x1="938.5" y1="-2" x2="938.5" y2="296.818" gradientUnits="userSpaceOnUse">
<stop stop-color="#F7DD43"/>
<stop offset="1" stop-color="#F7DD43" stop-opacity="0"/>
</linearGradient>
<linearGradient id="paint92_linear_175_198" x1="938.5" y1="-2" x2="938.5" y2="296.818" gradientUnits="userSpaceOnUse">
<stop stop-color="#F7DD43"/>
<stop offset="1" stop-color="#F7DD43" stop-opacity="0"/>
</linearGradient>
<linearGradient id="paint93_linear_175_198" x1="938.5" y1="-2" x2="938.5" y2="296.818" gradientUnits="userSpaceOnUse">
<stop stop-color="#F7DD43"/>
<stop offset="1" stop-color="#F7DD43" stop-opacity="0"/>
</linearGradient>
</defs>
</svg>
