<svg width="50" height="50" viewBox="0 0 50 50" fill="none" xmlns="http://www.w3.org/2000/svg">
<g clip-path="url(#clip0_105_847)">
<path d="M25 50C38.8071 50 50 38.8071 50 25C50 11.1929 38.8071 0 25 0C11.1929 0 0 11.1929 0 25C0 38.8071 11.1929 50 25 50Z" fill="#F0F0F0"/>
<path d="M24.9998 0C15.0883 0 6.52422 5.76807 2.48047 14.1305H47.519C43.4754 5.76807 34.9112 0 24.9998 0V0Z" fill="#338AF3"/>
<path d="M24.9998 50.0001C34.9112 50.0001 43.4754 44.232 47.5191 35.8696H2.48047C6.52422 44.232 15.0883 50.0001 24.9998 50.0001Z" fill="#338AF3"/>
<path d="M32.4717 25.0002L29.4185 26.4364L31.0443 29.3934L27.7289 28.7591L27.3088 32.1083L24.9995 29.645L22.6901 32.1083L22.2701 28.7591L18.9547 29.3933L20.5805 26.4363L17.5273 25.0002L20.5806 23.564L18.9547 20.6071L22.27 21.2413L22.6902 17.8921L24.9995 20.3554L27.3089 17.8921L27.7289 21.2413L31.0444 20.6071L29.4186 23.5641L32.4717 25.0002Z" fill="#FFDA44"/>
</g>
<defs>
<clipPath id="clip0_105_847">
<rect width="50" height="50" fill="white"/>
</clipPath>
</defs>
</svg>
