<svg width="50" height="50" viewBox="0 0 50 50" fill="none" xmlns="http://www.w3.org/2000/svg">
<g clip-path="url(#clip0_105_958)">
<path d="M33.696 1.55498C30.9877 0.550098 28.0584 0 25.0004 0C21.9424 0 19.0131 0.550098 16.3048 1.55498L14.1309 25L16.3048 48.445C19.0131 49.45 21.9424 50 25.0004 50C28.0584 50 30.9877 49.45 33.696 48.445L35.8699 25L33.696 1.55498Z" fill="#FFDA44"/>
<path d="M49.9997 25.0001C49.9997 14.2511 43.2153 5.0874 33.6953 1.55518V48.4453C43.2153 44.9128 49.9997 35.7493 49.9997 25.0001V25.0001Z" fill="#D80027"/>
<path d="M0 25.0001C0 35.7493 6.78437 44.9128 16.3044 48.4452V1.55518C6.78437 5.0874 0 14.2511 0 25.0001V25.0001Z" fill="black"/>
</g>
<defs>
<clipPath id="clip0_105_958">
<rect width="50" height="50" fill="white"/>
</clipPath>
</defs>
</svg>
