<svg width="50" height="50" viewBox="0 0 50 50" fill="none" xmlns="http://www.w3.org/2000/svg">
<g clip-path="url(#clip0_105_1308)">
<path d="M50 24.9999C50 21.9419 49.4499 19.0125 48.445 16.3043L25 15.2173L1.55498 16.3042C0.550098 19.0125 0 21.9419 0 24.9999C0 28.0579 0.550098 30.9873 1.55498 33.6955L25 34.7825L48.445 33.6956C49.4499 30.9873 50 28.0579 50 24.9999Z" fill="#F0F0F0"/>
<path d="M24.9997 50.0002C35.7488 50.0002 44.9124 43.2158 48.4447 33.6958H1.55469C5.08701 43.2158 14.2506 50.0002 24.9997 50.0002Z" fill="#0052B4"/>
<path d="M1.55469 16.3044H48.4448C44.9124 6.78437 35.7488 0 24.9997 0C14.2506 0 5.08701 6.78437 1.55469 16.3044V16.3044Z" fill="#D80027"/>
<path d="M31.5217 17.3915H27.1738L27.8985 11.9566L30.797 9.78271L33.6955 11.9566V16.3045L31.5217 17.3915Z" fill="#338AF3"/>
<path d="M18.4785 17.3915H22.8264L22.1017 11.9566L19.2031 9.78271L16.3047 11.9566V16.3045L18.4785 17.3915Z" fill="#338AF3"/>
<path d="M27.8988 17.3915H22.1016V11.9566L25.0002 9.78271L27.8988 11.9566V17.3915Z" fill="#0052B4"/>
<path d="M16.3047 16.3047V28.2611C16.3047 31.1081 17.6799 33.6399 19.801 35.2271L21.3228 34.8464L23.2431 36.7782C23.8109 36.8952 24.3985 36.9568 25.0004 36.9568C25.599 36.9568 26.1837 36.896 26.7485 36.7802L28.9406 34.955L30.1996 35.2236C32.3198 33.6365 33.696 31.1073 33.696 28.2611V16.3047H16.3047Z" fill="#F0F0F0"/>
<path d="M16.3047 16.3042H19.7829V19.7824H16.3047V16.3042Z" fill="#D80027"/>
<path d="M23.2607 16.3042H26.739V19.7824H23.2607V16.3042Z" fill="#D80027"/>
<path d="M30.2178 16.3042H33.696V19.7824H30.2178V16.3042Z" fill="#D80027"/>
<path d="M19.7832 19.7822H23.2614V23.2604H19.7832V19.7822Z" fill="#D80027"/>
<path d="M26.7393 19.7822H30.2175V23.2604H26.7393V19.7822Z" fill="#D80027"/>
<path d="M16.3047 23.2598H19.7829V26.738H16.3047V23.2598Z" fill="#D80027"/>
<path d="M19.7832 26.7378H23.2614V30.216H19.7832V26.7378Z" fill="#D80027"/>
<path d="M23.2607 23.2598H26.739V26.738H23.2607V23.2598Z" fill="#D80027"/>
<path d="M30.2178 23.2598H33.696V26.738H30.2178V23.2598Z" fill="#D80027"/>
<path d="M26.7393 26.7378H30.2175V30.216H26.7393V26.7378Z" fill="#D80027"/>
<path d="M23.2607 30.2163H26.739V33.6945H23.2607V30.2163Z" fill="#D80027"/>
<path d="M19.7831 30.2163H16.5293C16.8277 31.5093 17.4145 32.6924 18.2189 33.6945H19.7831V30.2163Z" fill="#D80027"/>
<path d="M30.2178 33.6945H31.7818C32.5865 32.6924 33.173 31.5092 33.4715 30.2163H30.2178V33.6945Z" fill="#D80027"/>
<path d="M19.7832 33.6948V35.2125C20.7948 35.9737 21.977 36.5195 23.2614 36.7814V33.6948H19.7832Z" fill="#D80027"/>
<path d="M26.7393 33.6948V36.7814C28.0237 36.5197 29.2059 35.9737 30.2175 35.2125V33.6948H26.7393Z" fill="#D80027"/>
</g>
<defs>
<clipPath id="clip0_105_1308">
<rect width="50" height="50" fill="white"/>
</clipPath>
</defs>
</svg>
