<svg width="50" height="50" viewBox="0 0 50 50" fill="none" xmlns="http://www.w3.org/2000/svg">
<g clip-path="url(#clip0_105_1151)">
<path d="M25 50C38.8071 50 50 38.8071 50 25C50 11.1929 38.8071 0 25 0C11.1929 0 0 11.1929 0 25C0 38.8071 11.1929 50 25 50Z" fill="#F0F0F0"/>
<path d="M49.9996 24.9998C49.9996 15.0883 44.2315 6.52422 35.8691 2.48047V47.519C44.2315 43.4754 49.9996 34.9113 49.9996 24.9998V24.9998Z" fill="#D80027"/>
<path d="M0 24.9998C0 34.9113 5.76807 43.4754 14.1305 47.5191V2.48047C5.76807 6.52422 0 15.0883 0 24.9998Z" fill="#D80027"/>
<path d="M29.3481 28.2606L33.6959 26.0867L31.5221 24.9998V22.8259L27.1742 24.9998L29.3481 20.652H27.1742L25.0003 17.3911L22.8264 20.652H20.6524L22.8264 24.9998L18.4785 22.8259V24.9998L16.3047 26.0867L20.6524 28.2606L19.5655 30.4346H23.9134V33.6954H26.0872V30.4346H30.4351L29.3481 28.2606Z" fill="#D80027"/>
</g>
<defs>
<clipPath id="clip0_105_1151">
<rect width="50" height="50" fill="white"/>
</clipPath>
</defs>
</svg>
