<svg width="50" height="50" viewBox="0 0 50 50" fill="none" xmlns="http://www.w3.org/2000/svg">
<g clip-path="url(#clip0_105_2661)">
<path d="M25 50C38.8071 50 50 38.8071 50 25C50 11.1929 38.8071 0 25 0C11.1929 0 0 11.1929 0 25C0 38.8071 11.1929 50 25 50Z" fill="#D80027"/>
<path d="M24.9995 36.9565C31.6029 36.9565 36.9561 31.6034 36.9561 25C36.9561 18.3966 31.6029 13.0435 24.9995 13.0435C18.3961 13.0435 13.043 18.3966 13.043 25C13.043 31.6034 18.3961 36.9565 24.9995 36.9565Z" fill="#F0F0F0"/>
<path d="M26.4736 20.4282L28.5248 23.2549L31.8468 22.1777L29.7924 25.002L31.8434 27.8285L28.5225 26.7473L26.4681 29.5715L26.4702 26.0792L23.1494 24.9979L26.4715 23.9208L26.4736 20.4282Z" fill="#D80027"/>
<path d="M27.7177 32.0651C23.8157 32.0651 20.6524 28.9019 20.6524 24.9999C20.6524 21.0979 23.8157 17.9347 27.7177 17.9347C28.9343 17.9347 30.0791 18.2423 31.0785 18.7839C29.5106 17.2506 27.3666 16.3042 25.0003 16.3042C20.1979 16.3042 16.3047 20.1974 16.3047 24.9998C16.3047 29.8022 20.1979 33.6954 25.0003 33.6954C27.3666 33.6954 29.5107 32.749 31.0785 31.2157C30.0791 31.7575 28.9343 32.0651 27.7177 32.0651Z" fill="#D80027"/>
</g>
<defs>
<clipPath id="clip0_105_2661">
<rect width="50" height="50" fill="white"/>
</clipPath>
</defs>
</svg>
