<svg width="50" height="50" viewBox="0 0 50 50" fill="none" xmlns="http://www.w3.org/2000/svg">
<g clip-path="url(#clip0_105_1551)">
<path d="M1.55469 33.6958C5.08701 43.2157 14.2506 50.0002 24.9997 50.0002C35.7488 50.0002 44.9124 43.2157 48.4447 33.6958L24.9997 31.522L1.55469 33.6958Z" fill="#FFDA44"/>
<path d="M24.9997 0C14.2506 0 5.08701 6.78438 1.55469 16.3044L24.9997 18.4782L48.4447 16.3043C44.9124 6.78437 35.7488 0 24.9997 0Z" fill="black"/>
<path d="M1.55498 16.3042C0.550098 19.0125 0 21.9418 0 24.9998C0 28.0578 0.550098 30.9871 1.55498 33.6954H48.4451C49.45 30.9871 50 28.0578 50 24.9998C50 21.9418 49.45 19.0125 48.445 16.3042H1.55498Z" fill="#D80027"/>
</g>
<defs>
<clipPath id="clip0_105_1551">
<rect width="50" height="50" fill="white"/>
</clipPath>
</defs>
</svg>
